<?xml version="1.0" encoding="utf-8"?>
<!-- Generator: Adobe Illustrator 16.2.0, SVG Export Plug-In . SVG Version: 6.00 Build 0)  -->
<!DOCTYPE svg PUBLIC "-//W3C//DTD SVG 1.1//EN" "http://www.w3.org/Graphics/SVG/1.1/DTD/svg11.dtd">
<svg version="1.1" id="Layer_2" xmlns="http://www.w3.org/2000/svg" xmlns:xlink="http://www.w3.org/1999/xlink" x="0px" y="0px"
	 width="800px" height="1000px" viewBox="0 0 800 1000" enable-background="new 0 0 800 1000" xml:space="preserve">
<g>
	<path fill="#BDBEC0" d="M238.072,114.09c-1.48-4.188-5.466-7.193-10.16-7.193c-4.695,0-8.681,3.005-10.161,7.193H238.072z"/>
	
		<linearGradient id="SVGID_1_" gradientUnits="userSpaceOnUse" x1="334.0608" y1="-114.918" x2="426.336" y2="82.9669" gradientTransform="matrix(1 0 0 1 16.7998 159.3203)">
		<stop  offset="0" style="stop-color:#E0E0E0"/>
		<stop  offset="0.0562" style="stop-color:#DEDEDE"/>
		<stop  offset="0.384" style="stop-color:#D4D4D4"/>
		<stop  offset="0.8098" style="stop-color:#D1D1D1"/>
	</linearGradient>
	<polygon fill="url(#SVGID_1_)" points="597.408,113.16 590.408,113.16 210.41,113.16 203.41,113.16 171.91,145.66 171.91,155.66 
		628.908,155.66 628.908,145.66 	"/>
	
		<linearGradient id="SVGID_2_" gradientUnits="userSpaceOnUse" x1="171.426" y1="-27.5527" x2="530.5412" y2="742.5725" gradientTransform="matrix(1 0 0 1 16.7998 159.3203)">
		<stop  offset="0" style="stop-color:#E0E0E0"/>
		<stop  offset="1" style="stop-color:#CCCCCC"/>
	</linearGradient>
	<path fill="url(#SVGID_2_)" d="M203.41,111.16h-13.5c-11.048,0-20,8.954-20,20v14.5h33.5V111.16z"/>
	
		<linearGradient id="SVGID_3_" gradientUnits="userSpaceOnUse" x1="523.9045" y1="-180.6548" x2="885.2909" y2="594.3408" gradientTransform="matrix(1 0 0 1 16.7998 159.3203)">
		<stop  offset="0" style="stop-color:#E0E0E0"/>
		<stop  offset="1" style="stop-color:#CCCCCC"/>
	</linearGradient>
	<path fill="url(#SVGID_3_)" d="M610.908,111.16h-13.5v34.5h33.5v-14.5C630.908,120.114,621.954,111.16,610.908,111.16z"/>
	
		<linearGradient id="SVGID_4_" gradientUnits="userSpaceOnUse" x1="347.5579" y1="-108.2227" x2="725.4232" y2="702.1124" gradientTransform="matrix(1 0 0 1 16.7998 159.3203)">
		<stop  offset="0" style="stop-color:#E0E0E0"/>
		<stop  offset="1" style="stop-color:#CCCCCC"/>
	</linearGradient>
	<path fill="url(#SVGID_4_)" d="M590.408,111.16H255.91v10.5h46.998c3.866,0,7,3.134,7,7v4c0,3.866-3.134,7-7,7H228.91
		c-3.866,0-7-3.134-7-7v-4c0-3.866,3.134-7,7-7h1v-10.5h-19.5v34.5h379.998V111.16z"/>
	
		<linearGradient id="SVGID_5_" gradientUnits="userSpaceOnUse" x1="198.844" y1="-41.4204" x2="556.9987" y2="726.6448" gradientTransform="matrix(1 0 0 1 16.7998 159.3203)">
		<stop  offset="0" style="stop-color:#E0E0E0"/>
		<stop  offset="1" style="stop-color:#CCCCCC"/>
	</linearGradient>
	<path fill="url(#SVGID_5_)" d="M169.91,871.16c0,11.046,8.952,20,20,20h184.998v-13h-31c-3.864,0-7-3.134-7-7v-4
		c0-3.866,3.136-7,7-7h59c3.866,0,7,3.134,7,7v4c0,3.866-3.134,7-7,7h-2v13h124c0,0,37.996,1.938,71.998-28.156
		s34.002-78.345,34.002-78.345v-632H169.91V871.16L169.91,871.16z"/>
	
		<linearGradient id="SVGID_6_" gradientUnits="userSpaceOnUse" x1="226.8489" y1="-52.0498" x2="596.3813" y2="740.4152" gradientTransform="matrix(1 0 0 1 16.7998 159.3203)">
		<stop  offset="0" style="stop-color:#E0E0E0"/>
		<stop  offset="1" style="stop-color:#CCCCCC"/>
	</linearGradient>
	<rect x="245.91" y="111.16" fill="url(#SVGID_6_)" width="4" height="10.5"/>
	
		<linearGradient id="SVGID_7_" gradientUnits="userSpaceOnUse" x1="218.571" y1="-48.3569" x2="588.07" y2="744.0359" gradientTransform="matrix(1 0 0 1 16.7998 159.3203)">
		<stop  offset="0" style="stop-color:#E0E0E0"/>
		<stop  offset="1" style="stop-color:#CCCCCC"/>
	</linearGradient>
	<rect x="235.91" y="111.16" fill="url(#SVGID_7_)" width="4" height="10.5"/>
	
		<linearGradient id="SVGID_8_" gradientUnits="userSpaceOnUse" x1="40.8972" y1="6.4756" x2="407.4837" y2="792.623" gradientTransform="matrix(1 0 0 1 16.7998 159.3203)">
		<stop  offset="0" style="stop-color:#E0E0E0"/>
		<stop  offset="1" style="stop-color:#CCCCCC"/>
	</linearGradient>
	<rect x="390.908" y="878.16" fill="url(#SVGID_8_)" width="4" height="13"/>
	
		<linearGradient id="SVGID_9_" gradientUnits="userSpaceOnUse" x1="32.5569" y1="10.0347" x2="399.1965" y2="796.2962" gradientTransform="matrix(1 0 0 1 16.7998 159.3203)">
		<stop  offset="0" style="stop-color:#E0E0E0"/>
		<stop  offset="1" style="stop-color:#CCCCCC"/>
	</linearGradient>
	<rect x="380.908" y="878.16" fill="url(#SVGID_9_)" width="4" height="13"/>
	
		<linearGradient id="SVGID_10_" gradientUnits="userSpaceOnUse" x1="524.3928" y1="665.0449" x2="529.9747" y2="674.713" gradientTransform="matrix(1 0 0 1 16.7998 159.3203)">
		<stop  offset="0" style="stop-color:#C9C9C9"/>
		<stop  offset="1" style="stop-color:#A8A8A8"/>
	</linearGradient>
	<path fill="url(#SVGID_10_)" d="M601.429,790.105l-120.324,68.775L601.429,790.105z"/>
	
		<linearGradient id="SVGID_11_" gradientUnits="userSpaceOnUse" x1="512.0061" y1="674.3574" x2="541.6799" y2="725.754" gradientTransform="matrix(1 0 0 1 16.7998 159.3203)">
		<stop  offset="0" style="stop-color:#C9C9C9"/>
		<stop  offset="1" style="stop-color:#A8A8A8"/>
	</linearGradient>
	<path fill="url(#SVGID_11_)" d="M596.906,863.004c34.002-30.094,34.002-78.345,34.002-78.345v-11.18L425.135,891.16h99.772
		C524.908,891.16,562.906,893.098,596.906,863.004z"/>
	
		<linearGradient id="SVGID_12_" gradientUnits="userSpaceOnUse" x1="154.1101" y1="-29.0352" x2="624.122" y2="-29.0352" gradientTransform="matrix(1 0 0 1 16.7998 159.3203)">
		<stop  offset="0" style="stop-color:#D4D4D4"/>
		<stop  offset="1" style="stop-color:#BFBFBF"/>
	</linearGradient>
	<polygon fill="url(#SVGID_12_)" points="205.16,147.41 171.91,147.41 171.91,145.91 203.66,145.91 203.66,113.16 205.16,113.16 	
		"/>
	
		<linearGradient id="SVGID_13_" gradientUnits="userSpaceOnUse" x1="154.1091" y1="-12.6602" x2="624.1202" y2="-12.6602" gradientTransform="matrix(1 0 0 1 16.7998 159.3203)">
		<stop  offset="0" style="stop-color:#D4D4D4"/>
		<stop  offset="1" style="stop-color:#BFBFBF"/>
	</linearGradient>
	<polygon fill="url(#SVGID_13_)" points="628.908,147.41 598.408,147.41 598.408,145.91 628.908,145.91 	"/>
	
		<linearGradient id="SVGID_14_" gradientUnits="userSpaceOnUse" x1="154.1101" y1="-29.0352" x2="624.1221" y2="-29.0352" gradientTransform="matrix(1 0 0 1 16.7998 159.3203)">
		<stop  offset="0" style="stop-color:#D4D4D4"/>
		<stop  offset="1" style="stop-color:#BFBFBF"/>
	</linearGradient>
	<polygon fill="url(#SVGID_14_)" points="592.158,147.41 211.41,147.41 211.41,145.91 590.658,145.91 590.658,113.16 
		592.158,113.16 	"/>
	<polygon fill="#39509C" points="358.604,776.959 358.604,776.957 358.604,776.957 	"/>
	<path fill="#39509C" d="M348.093,782.3L348.093,782.3L348.093,782.3z"/>
	<polygon fill="#39509C" points="337.335,787.774 337.335,787.771 337.335,787.771 	"/>
	<polygon fill="#39509C" points="326.825,793.117 326.825,793.116 326.825,793.116 	"/>
	<path fill="#39509C" d="M322.551,791.41l-0.353-0.479l0.034-0.015c-0.138-0.106-0.268-0.128-0.36-0.13
		c-0.095,0-0.311,0.031-0.72,0.239l-6.173,3.139l-0.79-1.551l7.129-3.645l-0.437-0.857l-7.043,3.581
		c-0.414,0.21-0.565,0.365-0.619,0.441c-0.039,0.056-0.162,0.229-0.045,0.638l1.081,2.122l0.435,0.437l-0.13,0.076
		c0.16,0.148,0.313,0.178,0.417,0.18l0,0c0.096,0,0.31-0.031,0.72-0.239l6.172-3.14l0.789,1.553l-7.127,3.645l0.438,0.856
		l7.042-3.581c0.416-0.212,0.564-0.367,0.618-0.439c0.067-0.1,0.148-0.272,0.045-0.642L322.551,791.41z"/>
	<path fill="#39509C" d="M327.558,792.37l7.048-3.584l-0.438-0.866l-7.137,3.629l-0.86-1.697l7.134-3.628l-0.482-0.945l-7.134,3.628
		l-0.864-1.695l7.136-3.629l-0.443-0.874l-7.048,3.585c-0.415,0.211-0.566,0.368-0.619,0.443c-0.038,0.053-0.15,0.211-0.056,0.597
		l0.926,1.822l-0.006,0.004l1.61,3.153c0.256,0.307,0.441,0.307,0.504,0.307v0.499l0,0l0.002-0.499
		C326.922,792.617,327.134,792.585,327.558,792.37z"/>
	<path fill="#39509C" d="M338.049,787.035l7.028-3.574l-0.442-0.874l-7.115,3.618l-1.86-3.641l0.009-0.005l-0.797-1.56l-0.866,0.446
		l1.23,2.422l-0.008,0.003l1.583,3.096c0.256,0.305,0.448,0.308,0.513,0.309l0.012,0.496l0,0v-0.496
		C337.426,787.274,337.639,787.243,338.049,787.035z"/>
	<path fill="#39509C" d="M348.097,781.801c0.096,0,0.307-0.031,0.729-0.246l7.048-3.584l-0.438-0.864l-7.135,3.629l-0.862-1.697
		l7.134-3.628l-0.479-0.946l-7.136,3.627l-0.862-1.694l7.135-3.629l-0.444-0.873l-7.048,3.584c-0.415,0.211-0.563,0.366-0.618,0.441
		c-0.041,0.059-0.16,0.225-0.043,0.644l0.955,1.855l-0.007,0.003l1.596,3.123c0.219,0.258,0.412,0.258,0.479,0.258v0.499l0,0
		L348.097,781.801z"/>
	<path fill="#39509C" d="M359.319,776.219l7.047-3.584l-0.446-0.88l-7.133,3.635l-1.841-3.604l0.006-0.003l-0.366-0.726l6.268-3.188
		l0.004,0.008l0.867-0.438l-0.448-0.884l-7.048,3.585c-0.414,0.21-0.565,0.367-0.619,0.443c-0.04,0.056-0.16,0.223-0.043,0.641
		l0.888,1.729l-0.005,0.004l0.796,1.566l0.861,1.678c0.216,0.257,0.423,0.259,0.491,0.26l0.008,0.498l0,0v-0.498
		C358.693,776.459,358.906,776.428,359.319,776.219z"/>
	<polygon fill="#39509C" points="373.357,761.429 365.36,765.505 365.784,766.35 369.369,764.527 372.03,769.755 372.861,769.332 
		370.201,764.104 373.787,762.28 	"/>
	<path fill="#39509C" d="M405.766,788.822l-0.313-0.421l0.046-0.026c-0.154-0.146-0.31-0.173-0.411-0.175
		c-0.096,0-0.312,0.031-0.722,0.239l-6.172,3.14l-0.79-1.553l7.127-3.644l-0.437-0.858l-7.043,3.581
		c-0.415,0.211-0.566,0.366-0.619,0.441c-0.068,0.098-0.149,0.271-0.045,0.641l1.079,2.117l0.414,0.4l-0.133,0.089
		c0.17,0.172,0.332,0.202,0.439,0.204h0.001c0.095,0,0.308-0.031,0.721-0.24l6.171-3.138l0.79,1.551l-7.128,3.646l0.438,0.856
		l7.043-3.581c0.416-0.212,0.563-0.367,0.618-0.44c0.04-0.058,0.162-0.229,0.046-0.642L405.766,788.822z"/>
	<polygon fill="#39509C" points="415.299,779.829 407.302,783.905 407.729,784.75 411.313,782.928 413.971,788.155 414.803,787.732 
		412.144,782.504 415.732,780.681 	"/>
	<path fill="#39509C" d="M424.963,774.93l-0.11,0.067l-5.562,2.829c-0.972,0.493-0.903,1.042-0.688,1.561l2.592,5.098l0.82-0.417
		l-0.635-1.249l6.363-3.236l0.637,1.248l0.832-0.423l-2.536-4.987C426.162,774.848,425.626,774.696,424.963,774.93z
		 M420.728,781.536l-1.141-2.24l6.364-3.237l1.143,2.24L420.728,781.536z"/>
	<path fill="#39509C" d="M439.88,772.626l-0.284-0.953c-0.122,0.047-0.184,0.146-0.191,0.188c0.002-0.006,0.025-0.114-0.037-0.473
		l-1.182-2.322c-0.182-0.228-0.411-0.389-0.636-0.403c-0.001,0-0.003,0-0.004,0c-0.147,0-0.366,0.041-0.739,0.229l-7.371,3.747
		l3.092,6.08l0.939-0.478l-0.86-1.692l6.51-3.311l0.86,1.69l0.94-0.479l-0.707-1.394C440.012,772.67,439.881,772.627,439.88,772.626
		z M431.986,775.328l-0.988-1.944l6.512-3.311l0.986,1.941L431.986,775.328z"/>
	<polygon fill="#39509C" points="449.153,762.613 441.156,766.688 441.581,767.534 445.165,765.71 447.824,770.938 448.657,770.516 
		446,765.288 449.585,763.465 	"/>
	<path fill="#39509C" d="M522.017,701.124c-0.001,0.005-0.007,0.002-0.012-0.002l-0.33-0.174l-0.438-0.166l0.2-0.816
		c-0.003-0.024-0.008-0.055-0.017-0.086l-0.019-0.159l-1.229-2.515c-0.207-0.254-0.474-0.422-0.76-0.431h-0.001
		c-0.183,0-0.483,0.054-1.007,0.308l-9.339,4.535l3.984,8.204l9.338-4.536c0.543-0.266,0.77-0.475,0.864-0.604
		c0.172-0.229,0.202-0.542,0.098-0.955L522.017,701.124z M511.155,702.343l7.925-3.849l0.947,1.95l-7.925,3.849L511.155,702.343z
		 M513.774,707.736l-0.942-1.942l7.927-3.849l0.94,1.94L513.774,707.736z"/>
	<path fill="#39509C" d="M597.118,660.76c-0.695-0.813-1.46-1.042-2.396-0.722l-0.136,0.085l-7.268,3.528
		c-1.08,0.522-1.39,1.197-1.001,2.188l3.303,6.798l1.337-0.647l-0.795-1.631l8.051-3.908l0.792,1.632l1.353-0.657L597.118,660.76z
		 M589.224,668.422l-1.293-2.663l8.048-3.909l1.293,2.663L589.224,668.422z"/>
	
		<linearGradient id="SVGID_15_" gradientUnits="userSpaceOnUse" x1="215.0432" y1="416.5435" x2="277.0426" y2="549.5016" gradientTransform="matrix(1 0 0 1 16.7998 159.3203)">
		<stop  offset="0" style="stop-color:#C9C9C9"/>
		<stop  offset="1" style="stop-color:#E0E0E0"/>
	</linearGradient>
	<circle fill="url(#SVGID_15_)" cx="262.843" cy="642.343" r="73.334"/>
	<polygon fill="#D9D9D9" points="194.792,642.759 201.894,647.271 201.894,638.411 	"/>
	<polygon fill="#D9D9D9" points="330.894,642.759 323.79,647.271 323.79,638.411 	"/>
	<polygon fill="#D9D9D9" points="262.76,711.894 267.273,704.79 258.413,704.79 	"/>
	<polygon fill="#D9D9D9" points="262.76,572.79 267.273,579.894 258.413,579.894 	"/>
	
		<linearGradient id="SVGID_16_" gradientUnits="userSpaceOnUse" x1="222.6663" y1="432.3926" x2="274.8923" y2="544.3918" gradientTransform="matrix(1 0 0 1 16.7998 159.3203)">
		<stop  offset="0" style="stop-color:#595A5C"/>
		<stop  offset="0.1669" style="stop-color:#373838"/>
		<stop  offset="0.2761" style="stop-color:#262626"/>
	</linearGradient>
	<path fill="url(#SVGID_16_)" d="M315.197,621.011h-30.521V588.49c0-3.042-2.467-5.509-5.509-5.509H248.52
		c-3.042,0-5.508,2.467-5.508,5.509v32.521H210.49c-3.044,0-5.511,2.467-5.511,5.509v30.646c0,3.042,2.466,5.51,5.511,5.51h32.521
		v33.521c0,3.043,2.467,5.51,5.508,5.51h30.647c3.042,0,5.509-2.467,5.509-5.51v-33.521h30.521c3.042,0,5.509-2.468,5.509-5.51
		V626.52C320.704,623.479,318.24,621.011,315.197,621.011z"/>
	
		<linearGradient id="SVGID_17_" gradientUnits="userSpaceOnUse" x1="223.0657" y1="433.3438" x2="269.616" y2="533.1713" gradientTransform="matrix(1 0 0 1 16.7998 159.3203)">
		<stop  offset="0" style="stop-color:#231F20"/>
		<stop  offset="1" style="stop-color:#424143"/>
	</linearGradient>
	<path fill="url(#SVGID_17_)" d="M311.808,625.244h-31.465v-33.068c0-2.438-1.978-4.416-4.416-4.416h-24.565
		c-2.438,0-4.413,1.979-4.413,4.416v33.068H213.88c-2.439,0-4.416,1.978-4.416,4.416v24.563c0,2.438,1.977,4.417,4.416,4.417h33.067
		v33.869c0,2.438,1.978,4.416,4.414,4.416h24.565c2.438,0,4.416-1.978,4.416-4.416V658.64h31.465c2.438,0,4.416-1.979,4.416-4.417
		V629.66C316.223,627.222,314.244,625.244,311.808,625.244z"/>
	
		<linearGradient id="SVGID_18_" gradientUnits="userSpaceOnUse" x1="239.76" y1="469.5488" x2="252.3255" y2="496.4955" gradientTransform="matrix(1 0 0 1 16.7998 159.3203)">
		<stop  offset="0" style="stop-color:#231F20"/>
		<stop  offset="1" style="stop-color:#333333"/>
	</linearGradient>
	<circle fill="url(#SVGID_18_)" cx="262.843" cy="642.343" r="14.862"/>
	
		<linearGradient id="SVGID_19_" gradientUnits="userSpaceOnUse" x1="499.1301" y1="440.4458" x2="532.2042" y2="511.3734" gradientTransform="matrix(1 0 0 1 16.7998 159.3203)">
		<stop  offset="0" style="stop-color:#C9C9C9"/>
		<stop  offset="1" style="stop-color:#E0E0E0"/>
	</linearGradient>
	<path fill="url(#SVGID_19_)" d="M491.679,695.642c-15.047-0.229-29.391-8.81-36.271-23.325
		c-9.649-20.362-0.969-44.692,19.393-54.347l80.808-38.305c20.359-9.655,44.69-0.973,54.343,19.39
		c9.653,20.361,0.974,44.691-19.39,54.346l-80.807,38.306C503.908,694.475,497.736,695.734,491.679,695.642L491.679,695.642z"/>
	<path fill="#818285" d="M493.575,683.576c-16.036,0-29.083-13.047-29.083-29.083s13.047-29.083,29.083-29.083
		s29.083,13.047,29.083,29.083S509.613,683.576,493.575,683.576L493.575,683.576z M493.575,626.91
		c-15.209,0-27.583,12.374-27.583,27.583s12.374,27.583,27.583,27.583s27.583-12.374,27.583-27.583S508.784,626.91,493.575,626.91
		L493.575,626.91z"/>
	
		<linearGradient id="SVGID_20_" gradientUnits="userSpaceOnUse" x1="464.803" y1="469.4961" x2="488.7499" y2="520.8503" gradientTransform="matrix(1 0 0 1 16.7998 159.3203)">
		<stop  offset="0" style="stop-color:#C97A9B"/>
		<stop  offset="1" style="stop-color:#9B2063"/>
	</linearGradient>
	<path fill="url(#SVGID_20_)" d="M493.575,626.16c-15.623,0-28.333,12.71-28.333,28.333s12.71,28.333,28.333,28.333
		s28.333-12.71,28.333-28.333S509.198,626.16,493.575,626.16z"/>
	
		<linearGradient id="SVGID_21_" gradientUnits="userSpaceOnUse" x1="465.8" y1="471.6343" x2="487.7526" y2="518.7119" gradientTransform="matrix(1 0 0 1 16.7998 159.3203)">
		<stop  offset="0" style="stop-color:#BD5582"/>
		<stop  offset="0.5759" style="stop-color:#A7356D"/>
		<stop  offset="1" style="stop-color:#9B2063"/>
	</linearGradient>
	<circle fill="url(#SVGID_21_)" cx="493.575" cy="654.493" r="25.966"/>
	<path fill="#818285" d="M570.909,647.576c-16.034,0-29.083-13.047-29.083-29.083s13.048-29.083,29.083-29.083
		c16.036,0,29.083,13.047,29.083,29.083S586.947,647.576,570.909,647.576L570.909,647.576z M570.909,590.91
		c-15.209,0-27.583,12.374-27.583,27.583s12.374,27.583,27.583,27.583s27.583-12.374,27.583-27.583S586.118,590.91,570.909,590.91
		L570.909,590.91z"/>
	
		<linearGradient id="SVGID_22_" gradientUnits="userSpaceOnUse" x1="542.136" y1="433.4966" x2="566.0828" y2="484.8508" gradientTransform="matrix(1 0 0 1 16.7998 159.3203)">
		<stop  offset="0" style="stop-color:#C97A9B"/>
		<stop  offset="1" style="stop-color:#9B2063"/>
	</linearGradient>
	<path fill="url(#SVGID_22_)" d="M570.909,590.16c-15.623,0-28.333,12.71-28.333,28.333s12.71,28.333,28.333,28.333
		s28.333-12.71,28.333-28.333S586.532,590.16,570.909,590.16z"/>
	
		<linearGradient id="SVGID_23_" gradientUnits="userSpaceOnUse" x1="543.1331" y1="435.6343" x2="565.0856" y2="482.7119" gradientTransform="matrix(1 0 0 1 16.7998 159.3203)">
		<stop  offset="0" style="stop-color:#BD5582"/>
		<stop  offset="0.5759" style="stop-color:#A7356D"/>
		<stop  offset="1" style="stop-color:#9B2063"/>
	</linearGradient>
	<circle fill="url(#SVGID_23_)" cx="570.909" cy="618.493" r="25.966"/>
	
		<linearGradient id="SVGID_24_" gradientUnits="userSpaceOnUse" x1="312.845" y1="582.7705" x2="326.9325" y2="612.9814" gradientTransform="matrix(1 0 0 1 16.7998 159.3203)">
		<stop  offset="0" style="stop-color:#C4C4C4"/>
		<stop  offset="1" style="stop-color:#E0E0E0"/>
	</linearGradient>
	<path fill="url(#SVGID_24_)" d="M317.781,782.757c-5.846,0-11.477-3.215-14.293-8.788c-3.983-7.888-0.82-17.512,7.065-21.496
		l37.836-19.115c7.886-3.986,17.511-0.822,21.496,7.063c3.983,7.888,0.821,17.512-7.065,21.496l-37.836,19.117
		C322.673,782.202,320.209,782.757,317.781,782.757L317.781,782.757z"/>
	<path fill="#939598" d="M363.64,743.578c-1.54-3.05-4.621-4.944-8.039-4.944c-1.417,0-2.78,0.326-4.052,0.97l-37.837,19.116
		c-2.146,1.084-3.74,2.939-4.491,5.225c-0.751,2.282-0.567,4.724,0.517,6.866c1.54,3.052,4.62,4.944,8.039,4.944
		c1.397,0,2.798-0.335,4.053-0.969l37.839-19.117c2.146-1.084,3.738-2.938,4.489-5.223
		C364.906,748.162,364.724,745.723,363.64,743.578z"/>
	
		<linearGradient id="SVGID_25_" gradientUnits="userSpaceOnUse" x1="316.4368" y1="590.4727" x2="323.3402" y2="605.2772" gradientTransform="matrix(1 0 0 1 16.7998 159.3203)">
		<stop  offset="0" style="stop-color:#A8AAAD"/>
		<stop  offset="1" style="stop-color:#818285"/>
	</linearGradient>
	<path fill="url(#SVGID_25_)" d="M317.776,774.255c-2.74,0-5.38-1.507-6.7-4.12c-1.868-3.694-0.385-8.208,3.313-10.076
		l37.836-19.115c3.697-1.868,8.209-0.387,10.076,3.312c1.868,3.696,0.385,8.208-3.313,10.076l-37.836,19.117
		C320.068,773.995,318.912,774.255,317.776,774.255L317.776,774.255z"/>
	
		<linearGradient id="SVGID_26_" gradientUnits="userSpaceOnUse" x1="390.844" y1="582.7695" x2="404.9313" y2="612.9794" gradientTransform="matrix(1 0 0 1 16.7998 159.3203)">
		<stop  offset="0" style="stop-color:#C4C4C4"/>
		<stop  offset="1" style="stop-color:#E0E0E0"/>
	</linearGradient>
	<path fill="url(#SVGID_26_)" d="M395.781,782.757c-5.846,0-11.477-3.215-14.293-8.788c-3.983-7.888-0.82-17.512,7.065-21.496
		l37.837-19.115c7.886-3.986,17.51-0.822,21.496,7.063c3.982,7.888,0.821,17.512-7.066,21.496l-37.836,19.117
		C400.673,782.202,398.206,782.757,395.781,782.757L395.781,782.757z"/>
	<path fill="#939598" d="M441.639,743.578c-1.54-3.05-4.62-4.944-8.039-4.944c-1.417,0-2.78,0.326-4.053,0.97l-37.836,19.116
		c-2.146,1.084-3.74,2.939-4.491,5.225c-0.751,2.282-0.567,4.724,0.517,6.866c1.54,3.052,4.62,4.944,8.039,4.944
		c1.397,0,2.798-0.335,4.053-0.969l37.839-19.117c2.146-1.084,3.738-2.938,4.488-5.223
		C442.906,748.162,442.724,745.723,441.639,743.578z"/>
	
		<linearGradient id="SVGID_27_" gradientUnits="userSpaceOnUse" x1="394.4377" y1="590.4736" x2="401.3412" y2="605.2781" gradientTransform="matrix(1 0 0 1 16.7998 159.3203)">
		<stop  offset="0" style="stop-color:#A8AAAD"/>
		<stop  offset="1" style="stop-color:#818285"/>
	</linearGradient>
	<path fill="url(#SVGID_27_)" d="M395.776,774.255c-2.74,0-5.38-1.507-6.7-4.12c-1.868-3.694-0.385-8.208,3.313-10.076
		l37.836-19.115c3.697-1.868,8.209-0.387,10.076,3.312c1.869,3.696,0.386,8.208-3.313,10.076l-37.837,19.117
		C398.068,773.995,396.912,774.255,395.776,774.255L395.776,774.255z"/>
	
		<linearGradient id="SVGID_28_" gradientUnits="userSpaceOnUse" x1="291.4729" y1="-28.4146" x2="466.3394" y2="346.588" gradientTransform="matrix(1 0 0 1 16.7998 159.3203)">
		<stop  offset="0" style="stop-color:#7C7F81"/>
		<stop  offset="0.0152" style="stop-color:#7C7E81"/>
		<stop  offset="0.625" style="stop-color:#676B7C"/>
		<stop  offset="1" style="stop-color:#60657A"/>
	</linearGradient>
	<path fill="url(#SVGID_28_)" d="M576.242,458.826c16.734-16.734,18.333-38.188,18.333-46.333s0-224,0-224c0-7.732-6.268-14-14-14
		H217.91c-7.732,0-14,6.268-14,14v275c0,7.73,6.268,14,14,14c0,0,307.873,0,311.998,0S559.509,475.561,576.242,458.826z"/>
	
		<linearGradient id="SVGID_29_" gradientUnits="userSpaceOnUse" x1="314.573" y1="22.5786" x2="448.647" y2="310.1012" gradientTransform="matrix(1 0 0 1 16.7998 159.3203)">
		<stop  offset="0" style="stop-color:#C2AA33"/>
		<stop  offset="1" style="stop-color:#9F8E32"/>
	</linearGradient>
	<rect x="272.91" y="209.16" fill="url(#SVGID_29_)" width="250.998" height="233"/>
	<polygon fill="#9F8E32" points="280.91,217.16 523.908,217.16 523.908,209.16 272.91,209.16 272.91,442.16 280.91,442.16 	"/>
	<polygon fill="#9E2064" points="576.242,188.494 531.575,188.494 531.575,186.494 576.242,186.494 	"/>
	<polygon fill="#9E2064" points="321.575,188.494 220.243,188.494 220.243,186.494 321.575,186.494 	"/>
	<path fill="#282561" d="M576.242,196.494h-44.667c-0.553,0-1-0.448-1-1c0-0.552,0.447-1,1-1h44.667c0.555,0,1,0.448,1,1
		C577.242,196.046,576.796,196.494,576.242,196.494L576.242,196.494z"/>
	<path fill="#282561" d="M321.575,196.494H220.244c-0.554,0-1-0.448-1-1c0-0.552,0.446-1,1-1h101.331c0.554,0,1,0.448,1,1
		C322.575,196.046,322.129,196.494,321.575,196.494L321.575,196.494z"/>
	<path fill="#A8AAAD" d="M331.014,193.828v-7.441h1.661c0.796,0,1.426,0.074,1.887,0.222c0.496,0.145,0.945,0.39,1.349,0.737
		c0.817,0.7,1.228,1.621,1.228,2.761c0,1.144-0.426,2.069-1.277,2.776c-0.427,0.354-0.875,0.6-1.343,0.738
		c-0.438,0.138-1.058,0.207-1.861,0.207H331.014z M332.206,192.772h0.539c0.536,0,0.982-0.053,1.34-0.159
		c0.354-0.112,0.677-0.291,0.964-0.535c0.588-0.504,0.882-1.161,0.882-1.971c0-0.816-0.291-1.478-0.872-1.985
		c-0.523-0.453-1.294-0.68-2.313-0.68h-0.539V192.772L332.206,192.772z"/>
	<path fill="#A8AAAD" d="M338.829,190.073c0-1.047,0.408-1.947,1.228-2.699c0.813-0.752,1.791-1.128,2.933-1.128
		c1.128,0,2.097,0.379,2.901,1.138c0.811,0.758,1.215,1.669,1.215,2.732c0,1.07-0.407,1.978-1.22,2.723
		c-0.817,0.749-1.805,1.123-2.958,1.123c-1.022,0-1.94-0.333-2.753-0.998C339.278,192.229,338.829,191.266,338.829,190.073z
		 M340.034,190.085c0,0.822,0.293,1.498,0.884,2.027c0.584,0.529,1.259,0.794,2.023,0.794c0.831,0,1.531-0.271,2.104-0.809
		c0.569-0.545,0.854-1.21,0.854-1.994c0-0.792-0.282-1.457-0.846-1.993c-0.563-0.54-1.254-0.809-2.082-0.809
		c-0.824,0-1.521,0.27-2.087,0.809C340.319,188.644,340.034,189.302,340.034,190.085z"/>
	<path fill="#A8AAAD" d="M351.098,187.442v6.386h-1.195v-6.386h-1.82v-1.055h4.829v1.055H351.098z"/>
	<path fill="#A8AAAD" d="M358.117,193.828l1.666-8l2.719,5.783l2.813-5.783l1.497,8h-1.226l-0.766-4.492l-2.343,4.834l-2.276-4.839
		l-0.851,4.497H358.117z"/>
	<path fill="#A8AAAD" d="M373.729,192.021h-3.389l-0.884,1.807h-1.285l3.917-7.909l3.776,7.909h-1.307L373.729,192.021z
		 M373.24,190.965l-1.174-2.53l-1.229,2.53H373.24z"/>
	<path fill="#A8AAAD" d="M379.188,187.442v6.386h-1.195v-6.386h-1.818v-1.055h4.829v1.055H379.188z"/>
	<path fill="#A8AAAD" d="M385.338,190.657l2.449,3.171h-1.461l-2.261-3.046h-0.215v3.046h-1.195v-7.441h1.4
		c1.046,0,1.801,0.185,2.266,0.554c0.515,0.411,0.771,0.954,0.771,1.629c0,0.527-0.161,0.98-0.482,1.359
		C386.287,190.308,385.865,190.55,385.338,190.657z M383.852,189.804h0.379c1.131,0,1.697-0.407,1.697-1.22
		c0-0.761-0.551-1.142-1.651-1.142h-0.425V189.804z"/>
	<path fill="#A8AAAD" d="M390.761,186.387v7.441h-1.195v-7.441H390.761z"/>
	<path fill="#A8AAAD" d="M394.906,189.938l-2.179-3.552h1.358l1.513,2.521l1.589-2.521h1.369l-2.281,3.552l2.396,3.889h-1.34
		l-1.753-2.848l-1.805,2.848h-1.354L394.906,189.938z"/>
	<path fill="#A8AAAD" d="M404.54,186.387l2.063,4.974l2.153-5.335l2.061,5.335l2.189-4.974h1.297l-3.537,7.913l-2.036-5.272
		l-2.122,5.277l-3.363-7.918H404.54z"/>
	<path fill="#A8AAAD" d="M417.071,186.387v7.441h-1.192v-7.441H417.071z"/>
	<path fill="#A8AAAD" d="M421.744,187.442v6.386h-1.193v-6.386h-1.82v-1.055h4.83v1.055H421.744z"/>
	<path fill="#A8AAAD" d="M426.407,189.297h3.415v-2.911h1.193v7.441h-1.193v-3.475h-3.415v3.475h-1.192v-7.441h1.192V189.297z"/>
	<path fill="#A8AAAD" d="M441.806,187.49l-0.969,0.54c-0.184-0.295-0.354-0.488-0.52-0.578c-0.171-0.103-0.392-0.154-0.661-0.154
		c-0.332,0-0.604,0.088-0.825,0.265c-0.219,0.174-0.326,0.393-0.326,0.656c0,0.363,0.285,0.656,0.859,0.877l0.789,0.304
		c0.645,0.244,1.112,0.542,1.41,0.895c0.297,0.352,0.445,0.784,0.445,1.295c0,0.685-0.242,1.25-0.729,1.698
		c-0.488,0.45-1.096,0.675-1.818,0.675c-0.688,0-1.257-0.192-1.702-0.576c-0.44-0.383-0.716-0.922-0.825-1.616l1.21-0.251
		c0.055,0.437,0.149,0.739,0.287,0.906c0.246,0.321,0.604,0.482,1.076,0.482c0.373,0,0.683-0.117,0.929-0.352
		c0.246-0.235,0.369-0.531,0.369-0.891c0-0.145-0.021-0.277-0.064-0.397c-0.042-0.121-0.107-0.231-0.2-0.333
		c-0.09-0.101-0.207-0.196-0.351-0.284c-0.145-0.088-0.315-0.172-0.513-0.253l-0.766-0.298c-1.084-0.43-1.626-1.06-1.626-1.888
		c0-0.559,0.229-1.026,0.685-1.401c0.454-0.379,1.02-0.568,1.694-0.568C440.58,186.242,441.294,186.658,441.806,187.49z"/>
	<path fill="#A8AAAD" d="M446.372,187.442v6.386h-1.192v-6.386h-1.82v-1.055h4.829v1.055H446.372z"/>
	<path fill="#A8AAAD" d="M454.21,187.442h-3.176v1.788h3.082v1.056h-3.082v2.486h3.176v1.056h-4.368v-7.441h4.368V187.442z"/>
	<path fill="#A8AAAD" d="M459.048,190.657l2.449,3.171h-1.461l-2.262-3.046h-0.215v3.046h-1.195v-7.441h1.4
		c1.046,0,1.801,0.185,2.266,0.554c0.516,0.411,0.771,0.954,0.771,1.629c0,0.527-0.16,0.98-0.482,1.359
		C460,190.308,459.574,190.55,459.048,190.657z M457.562,189.804h0.379c1.132,0,1.697-0.407,1.697-1.22
		c0-0.761-0.551-1.142-1.65-1.142h-0.426V189.804z"/>
	<path fill="#A8AAAD" d="M467.645,187.442h-3.173v1.788h3.081v1.056h-3.081v2.486h3.173v1.056h-4.368v-7.441h4.368V187.442z"/>
	<path fill="#A8AAAD" d="M469.406,190.073c0-1.047,0.408-1.947,1.228-2.699c0.813-0.752,1.79-1.128,2.933-1.128
		c1.128,0,2.095,0.379,2.901,1.138c0.811,0.758,1.216,1.669,1.216,2.732c0,1.07-0.407,1.978-1.221,2.723
		c-0.816,0.749-1.805,1.123-2.958,1.123c-1.022,0-1.94-0.333-2.753-0.998C469.855,192.229,469.406,191.266,469.406,190.073z
		 M470.613,190.085c0,0.822,0.293,1.498,0.882,2.027c0.584,0.529,1.261,0.794,2.024,0.794c0.831,0,1.531-0.271,2.103-0.809
		c0.571-0.545,0.856-1.21,0.856-1.994c0-0.792-0.282-1.457-0.846-1.993c-0.563-0.54-1.255-0.809-2.082-0.809
		c-0.824,0-1.521,0.27-2.087,0.809C470.896,188.644,470.613,189.302,470.613,190.085z"/>
	<path fill="#A8AAAD" d="M488.075,187.49l-0.97,0.54c-0.181-0.295-0.354-0.488-0.518-0.578c-0.17-0.103-0.393-0.154-0.66-0.154
		c-0.332,0-0.607,0.088-0.826,0.265c-0.219,0.174-0.328,0.393-0.328,0.656c0,0.363,0.287,0.656,0.861,0.877l0.789,0.304
		c0.643,0.244,1.111,0.542,1.41,0.895c0.297,0.353,0.444,0.784,0.444,1.295c0,0.685-0.243,1.25-0.728,1.698
		c-0.489,0.45-1.098,0.675-1.82,0.675c-0.688,0-1.255-0.192-1.703-0.576c-0.438-0.383-0.715-0.922-0.824-1.616l1.209-0.251
		c0.057,0.437,0.15,0.739,0.287,0.906c0.246,0.321,0.605,0.482,1.077,0.482c0.372,0,0.685-0.117,0.929-0.352
		c0.246-0.235,0.369-0.531,0.369-0.891c0-0.145-0.021-0.277-0.063-0.397c-0.043-0.121-0.109-0.231-0.2-0.333
		s-0.208-0.196-0.351-0.284c-0.146-0.088-0.315-0.172-0.516-0.253l-0.764-0.298c-1.084-0.43-1.625-1.06-1.625-1.888
		c0-0.559,0.227-1.026,0.682-1.401c0.455-0.379,1.021-0.568,1.697-0.568C486.851,186.242,487.564,186.658,488.075,187.49z"/>
	<path fill="#A8AAAD" d="M489.914,190.073c0-1.047,0.408-1.947,1.228-2.699c0.813-0.752,1.79-1.128,2.933-1.128
		c1.128,0,2.097,0.379,2.901,1.138c0.811,0.758,1.215,1.669,1.215,2.732c0,1.07-0.406,1.978-1.22,2.723
		c-0.816,0.749-1.803,1.123-2.958,1.123c-1.022,0-1.94-0.333-2.753-0.998C490.363,192.229,489.914,191.266,489.914,190.073z
		 M491.119,190.085c0,0.822,0.293,1.498,0.884,2.027c0.584,0.529,1.259,0.794,2.022,0.794c0.831,0,1.531-0.271,2.104-0.809
		c0.568-0.545,0.854-1.21,0.854-1.994c0-0.792-0.282-1.457-0.846-1.993c-0.563-0.54-1.255-0.809-2.082-0.809
		c-0.824,0-1.521,0.27-2.087,0.809C491.404,188.644,491.119,189.302,491.119,190.085z"/>
	<path fill="#A8AAAD" d="M501.475,186.387v4.479c0,0.639,0.111,1.106,0.334,1.401c0.331,0.427,0.798,0.641,1.398,0.641
		c0.604,0,1.072-0.213,1.404-0.641c0.223-0.286,0.333-0.753,0.333-1.401v-4.479h1.194v4.791c0,0.784-0.26,1.43-0.779,1.938
		c-0.584,0.565-1.303,0.848-2.152,0.848c-0.851,0-1.566-0.283-2.147-0.848c-0.521-0.507-0.779-1.153-0.779-1.938v-4.791H501.475z"/>
	<path fill="#A8AAAD" d="M508.625,193.828v-7.947l5.771,5.677v-5.171h1.194v7.896l-5.773-5.663v5.209H508.625L508.625,193.828z"/>
	<path fill="#A8AAAD" d="M518.076,193.828v-7.441h1.661c0.797,0,1.427,0.074,1.889,0.222c0.494,0.145,0.943,0.39,1.349,0.737
		c0.816,0.7,1.226,1.621,1.226,2.761c0,1.144-0.426,2.069-1.275,2.776c-0.429,0.354-0.875,0.6-1.345,0.738
		c-0.438,0.138-1.058,0.207-1.859,0.207H518.076z M519.272,192.772h0.539c0.536,0,0.982-0.053,1.338-0.159
		c0.355-0.112,0.677-0.291,0.964-0.535c0.588-0.504,0.882-1.161,0.882-1.971c0-0.816-0.291-1.478-0.871-1.985
		c-0.521-0.453-1.294-0.68-2.312-0.68h-0.539L519.272,192.772L519.272,192.772z"/>
	
		<linearGradient id="SVGID_30_" gradientUnits="userSpaceOnUse" x1="211.7678" y1="127.7725" x2="217.1221" y2="139.2544" gradientTransform="matrix(1 0 0 1 16.7998 159.3203)">
		<stop  offset="0" style="stop-color:#EF4237"/>
		<stop  offset="1" style="stop-color:#CD3634"/>
	</linearGradient>
	<circle fill="url(#SVGID_30_)" cx="231.244" cy="292.833" r="6.333"/>
	<path fill="#A8AAAD" d="M215.877,315.827v-7.441h1.188c0.53,0,0.952,0.039,1.269,0.116s0.586,0.207,0.805,0.39
		c0.222,0.189,0.398,0.426,0.528,0.708c0.133,0.286,0.2,0.575,0.2,0.868c0,0.533-0.219,0.984-0.651,1.354
		c0.42,0.135,0.752,0.371,0.995,0.708c0.246,0.334,0.369,0.723,0.369,1.166c0,0.582-0.221,1.073-0.656,1.475
		c-0.263,0.247-0.561,0.419-0.887,0.516c-0.358,0.093-0.81,0.14-1.35,0.14H215.877L215.877,315.827z M217.072,311.582h0.375
		c0.444,0,0.771-0.093,0.979-0.277c0.207-0.185,0.31-0.457,0.31-0.817c0-0.35-0.104-0.616-0.316-0.797
		c-0.212-0.182-0.521-0.272-0.923-0.272h-0.42v2.163H217.072z M217.072,314.771h0.738c0.54,0,0.938-0.099,1.189-0.298
		c0.267-0.215,0.398-0.489,0.398-0.819c0-0.321-0.128-0.591-0.385-0.81c-0.25-0.215-0.695-0.323-1.338-0.323h-0.605L217.072,314.771
		L217.072,314.771z"/>
	<path fill="#A8AAAD" d="M227.206,314.02h-3.391l-0.882,1.807h-1.287l3.917-7.909l3.778,7.909h-1.307L227.206,314.02z
		 M226.718,312.964l-1.174-2.53l-1.23,2.53H226.718z"/>
	<path fill="#A8AAAD" d="M232.665,309.441v6.386h-1.195v-6.386h-1.82v-1.055h4.829v1.055H232.665z"/>
	<path fill="#A8AAAD" d="M238.318,309.441v6.386h-1.193v-6.386h-1.82v-1.055h4.829v1.055H238.318z"/>
	<path fill="#A8AAAD" d="M246.155,309.441h-3.173v1.788h3.082v1.056h-3.082v2.486h3.173v1.056h-4.366v-7.441h4.366V309.441z"/>
	<path fill="#A8AAAD" d="M250.993,312.656l2.449,3.171h-1.461l-2.261-3.046h-0.215v3.046h-1.195v-7.441h1.4
		c1.046,0,1.801,0.185,2.266,0.554c0.515,0.411,0.771,0.954,0.771,1.629c0,0.527-0.161,0.98-0.482,1.359
		C251.943,312.308,251.52,312.55,250.993,312.656z M249.506,311.803h0.379c1.131,0,1.697-0.407,1.697-1.22
		c0-0.761-0.553-1.142-1.651-1.142h-0.425V311.803z"/>
	<path fill="#A8AAAD" d="M256.473,312.613l-2.584-4.227h1.374l1.81,2.974l1.815-2.974h1.374l-2.594,4.227v3.214h-1.195V312.613z"/>
	<path fill="none" d="M580.575,176.993H217.91c-6.343,0-11.5,5.159-11.5,11.5v275c0,6.341,5.157,11.5,11.5,11.5h311.998
		c0.269-0.001,27.245-0.614,44.566-17.937c15.886-15.886,17.601-36.458,17.601-44.563v-224
		C592.075,182.152,586.916,176.993,580.575,176.993z"/>
	
		<linearGradient id="SVGID_31_" gradientUnits="userSpaceOnUse" x1="311.0481" y1="13.5649" x2="461.9631" y2="337.2034" gradientTransform="matrix(1 0 0 1 16.7998 159.3203)">
		<stop  offset="0" style="stop-color:#8A8A8A"/>
		<stop  offset="1" style="stop-color:#404040"/>
	</linearGradient>
	<path fill="url(#SVGID_31_)" d="M529.908,475.993H217.91c-6.895,0-12.5-5.607-12.5-12.5v-275c0-6.893,5.605-12.5,12.5-12.5h362.665
		c6.895,0,12.5,5.607,12.5,12.5v224c0,8.232-1.741,29.122-17.894,45.271C557.449,475.497,530.18,475.993,529.908,475.993
		L529.908,475.993z M217.91,177.493c-6.065,0-11,4.935-11,11v275c0,6.063,4.935,11,11,11h311.998
		c0.266-0.002,27.164-0.74,44.214-17.788c15.753-15.754,17.453-36.167,17.453-44.212v-224c0-6.065-4.935-11-11-11H217.91
		L217.91,177.493z"/>
	<polygon fill="#D2D3D4" points="248.91,113.321 248.91,120.66 246.91,120.66 246.91,121.66 249.91,121.66 249.91,113.321 	"/>
	<path fill="#D2D3D4" d="M301.908,120.66H256.91v1h45.998c1.68,0,3.22,0.592,4.423,1.577
		C306.05,121.665,304.098,120.66,301.908,120.66z"/>
	<polygon fill="#D2D3D4" points="238.91,120.66 236.91,120.66 236.91,121.66 239.91,121.66 239.91,113.321 238.91,113.321 	"/>
	<path fill="#D2D3D4" d="M228.91,120.66h-1c-3.866,0-7,3.134-7,7v4c0,2.188,1.004,4.14,2.575,5.423
		c-0.983-1.206-1.575-2.745-1.575-4.423v-4c0-3.866,3.134-7,7-7h1v-8.339h-1V120.66z"/>
	
		<linearGradient id="SVGID_32_" gradientUnits="userSpaceOnUse" x1="235.9773" y1="-56.8223" x2="259.443" y2="-6.5001" gradientTransform="matrix(1 0 0 1 16.7998 159.3203)">
		<stop  offset="0" style="stop-color:#E0E0E0"/>
		<stop  offset="1" style="stop-color:#DEDEDE"/>
	</linearGradient>
	<path fill="url(#SVGID_32_)" d="M256.91,113.16v8.5h45.998c3.866,0,7,3.134,7,7v4c0,3.866-3.134,7-7,7H228.91c-3.866,0-7-3.134-7-7
		v-4c0-3.866,3.134-7,7-7h1v-8.5h7v8.5h3v-8.5h7v8.5h3v-8.5H256.91z"/>
	<path fill="#E0E0E0" d="M245.096,126.052c-1.196,0-2.22,0.394-3.072,1.182c-0.854,0.788-1.284,1.73-1.284,2.827
		c0,1.249,0.471,2.259,1.407,3.029c0.854,0.697,1.813,1.045,2.884,1.045c1.212,0,2.243-0.392,3.101-1.177
		c0.852-0.781,1.278-1.731,1.278-2.853c0-1.114-0.426-2.068-1.273-2.863C247.291,126.45,246.277,126.052,245.096,126.052z
		 M247.25,132.182c-0.6,0.565-1.332,0.848-2.202,0.848c-0.802,0-1.509-0.277-2.122-0.833c-0.616-0.555-0.924-1.263-0.924-2.124
		c0-0.82,0.297-1.51,0.892-2.068c0.594-0.565,1.323-0.847,2.188-0.847c0.865,0,1.593,0.282,2.181,0.847
		c0.591,0.562,0.886,1.258,0.886,2.088C248.146,130.915,247.848,131.611,247.25,132.182z"/>
	<polygon fill="#E0E0E0" points="251.599,133.994 252.85,133.994 252.85,130.283 255.638,130.283 255.638,129.178 252.85,129.178 
		252.85,127.305 255.74,127.305 255.74,126.199 251.599,126.199 	"/>
	<polygon fill="#E0E0E0" points="257.806,133.994 259.057,133.994 259.057,130.283 261.845,130.283 261.845,129.178 
		259.057,129.178 259.057,127.305 261.947,127.305 261.947,126.199 257.806,126.199 	"/>
	<path fill="#E0E0E0" d="M267.192,128.021c-0.479,0-0.89,0.17-1.229,0.51c-0.336,0.336-0.505,0.749-0.505,1.235
		c0,0.476,0.167,0.886,0.5,1.23c0.34,0.34,0.743,0.51,1.208,0.51c0.473,0,0.875-0.17,1.208-0.51c0.333-0.336,0.5-0.749,0.5-1.235
		c0-0.476-0.167-0.884-0.5-1.225C268.044,128.193,267.651,128.021,267.192,128.021z"/>
	<path fill="#E0E0E0" d="M276.864,126.052c-1.194,0-2.22,0.394-3.07,1.182c-0.856,0.788-1.284,1.73-1.284,2.827
		c0,1.249,0.469,2.259,1.407,3.029c0.852,0.697,1.813,1.045,2.884,1.045c1.21,0,2.243-0.392,3.099-1.177
		c0.854-0.781,1.278-1.731,1.278-2.853c0-1.114-0.424-2.068-1.273-2.863C279.059,126.45,278.046,126.052,276.864,126.052z
		 M279.018,132.182c-0.598,0.565-1.332,0.848-2.202,0.848c-0.802,0-1.509-0.277-2.122-0.833c-0.614-0.555-0.924-1.263-0.924-2.124
		c0-0.82,0.297-1.51,0.894-2.068c0.594-0.565,1.321-0.847,2.186-0.847c0.867,0,1.593,0.282,2.181,0.847
		c0.593,0.562,0.888,1.258,0.888,2.088C279.915,130.915,279.616,131.611,279.018,132.182z"/>
	<polygon fill="#E0E0E0" points="289.415,131.616 283.367,125.668 283.367,133.994 284.619,133.994 284.619,128.536 
		290.667,134.469 290.667,126.199 289.415,126.199 	"/>
	<polygon fill="#E0E0E0" points="238.012,135.708 238.012,125.682 227.985,130.601 	"/>
	<polygon fill="#E0E0E0" points="293.917,125.682 293.917,135.709 303.944,130.79 	"/>
	<path fill="#D1D1D1" d="M243.416,132.568c-0.269-0.434-0.414-0.928-0.414-1.495c0-0.82,0.297-1.51,0.892-2.068
		c0.594-0.565,1.323-0.847,2.188-0.847c0.625,0,1.173,0.152,1.651,0.445c-0.13-0.212-0.277-0.415-0.472-0.598
		c-0.581-0.559-1.299-0.839-2.153-0.845c-0.778,0.162-1.478,0.513-2.083,1.073c-0.438,0.402-0.759,0.846-0.973,1.33
		c-0.028,0.165-0.048,0.333-0.048,0.51c0,0.861,0.308,1.569,0.924,2.124C243.083,132.339,243.247,132.462,243.416,132.568z"/>
	<path fill="#D1D1D1" d="M249.136,128.244c-0.131-0.124-0.274-0.22-0.414-0.324c0.455,0.644,0.688,1.372,0.688,2.187
		c0,0.554-0.106,1.066-0.314,1.537c-0.106,0.586-0.385,1.1-0.845,1.539c-0.6,0.565-1.332,0.848-2.202,0.848
		c-0.006,0-0.011-0.001-0.019-0.001c-0.318,0.065-0.648,0.107-0.997,0.107c-0.965,0-1.833-0.298-2.62-0.862
		c0.204,0.293,0.437,0.571,0.733,0.816c0.854,0.697,1.813,1.045,2.886,1.045c1.21,0,2.241-0.392,3.099-1.177
		c0.852-0.781,1.278-1.731,1.278-2.853C250.409,129.993,249.984,129.038,249.136,128.244z"/>
	<polygon fill="#D1D1D1" points="255.638,130.283 252.85,130.283 252.85,133.994 252.599,133.994 252.599,134.994 253.85,134.994 
		253.85,131.283 256.638,131.283 256.638,130.178 255.638,130.178 	"/>
	<polygon fill="#D1D1D1" points="255.74,127.199 255.74,127.305 252.85,127.305 252.85,129.178 253.85,129.178 253.85,128.305 
		256.74,128.305 256.74,127.199 	"/>
	<polygon fill="#D1D1D1" points="261.845,130.283 259.057,130.283 259.057,133.994 258.806,133.994 258.806,134.994 
		260.057,134.994 260.057,131.283 262.845,131.283 262.845,130.178 261.845,130.178 	"/>
	<polygon fill="#D1D1D1" points="261.947,127.199 261.947,127.305 259.057,127.305 259.057,129.178 260.057,129.178 
		260.057,128.305 262.947,128.305 262.947,127.199 	"/>
	<path fill="#D1D1D1" d="M269.374,129.537c-0.187-0.193-0.394-0.326-0.617-0.41c0.076,0.196,0.117,0.407,0.117,0.635
		c0,0.487-0.167,0.899-0.5,1.235c-0.333,0.34-0.736,0.51-1.208,0.51c-0.211,0-0.408-0.04-0.595-0.11
		c0.083,0.218,0.21,0.418,0.387,0.6c0.34,0.34,0.743,0.51,1.208,0.51c0.473,0,0.875-0.17,1.208-0.51
		c0.333-0.336,0.5-0.749,0.5-1.235C269.874,130.286,269.707,129.877,269.374,129.537z"/>
	<path fill="#D1D1D1" d="M280.904,128.244c-0.131-0.124-0.272-0.22-0.414-0.324c0.455,0.644,0.688,1.372,0.688,2.187
		c0,0.554-0.106,1.066-0.314,1.537c-0.104,0.586-0.385,1.1-0.845,1.539c-0.598,0.565-1.332,0.848-2.202,0.848
		c-0.006,0-0.011-0.001-0.017-0.001c-0.32,0.065-0.65,0.107-0.999,0.107c-0.963,0-1.833-0.298-2.62-0.862
		c0.204,0.293,0.438,0.571,0.735,0.816c0.852,0.697,1.813,1.045,2.884,1.045c1.21,0,2.243-0.392,3.099-1.177
		c0.854-0.781,1.278-1.731,1.278-2.853C282.177,129.993,281.753,129.038,280.904,128.244z"/>
	<path fill="#D1D1D1" d="M275.184,132.568c-0.267-0.434-0.414-0.928-0.414-1.495c0-0.82,0.297-1.51,0.894-2.068
		c0.594-0.565,1.321-0.847,2.186-0.847c0.625,0,1.173,0.152,1.653,0.445c-0.13-0.212-0.279-0.415-0.474-0.598
		c-0.579-0.559-1.299-0.839-2.151-0.845c-0.78,0.162-1.479,0.513-2.083,1.073c-0.438,0.402-0.759,0.846-0.975,1.33
		c-0.026,0.165-0.048,0.333-0.048,0.51c0,0.861,0.31,1.569,0.924,2.124C274.851,132.339,275.015,132.462,275.184,132.568z"/>
	<polygon fill="#D1D1D1" points="290.667,127.199 290.667,134.469 284.619,128.536 284.619,133.994 284.367,133.994 
		284.367,134.994 285.619,134.994 285.619,129.536 291.667,135.469 291.667,127.199 	"/>
	<polygon fill="#D1D1D1" points="238.012,127.172 238.012,135.708 229.476,131.36 228.985,131.601 239.012,136.708 239.012,126.682 
			"/>
	<polygon fill="#D1D1D1" points="303.452,131.031 294.917,135.218 294.917,136.709 304.944,131.79 	"/>
	
		<linearGradient id="SVGID_33_" gradientUnits="userSpaceOnUse" x1="347.615" y1="690.5527" x2="369.7426" y2="738.0056" gradientTransform="matrix(1 0 0 1 16.7998 159.3203)">
		<stop  offset="0" style="stop-color:#D1D1D1"/>
		<stop  offset="1" style="stop-color:#CCCCCC"/>
	</linearGradient>
	<path fill="url(#SVGID_33_)" d="M343.908,878.16h31v12h7v-12h3v12h7v-12h3v12h7v-12h1c3.866,0,7-3.134,7-7v-4c0-3.866-3.134-7-7-7
		h-59c-3.864,0-7,3.134-7,7v4C336.908,875.026,340.043,878.16,343.908,878.16z"/>
	<path fill="#C4C4C4" d="M336.908,871.16v-4c0-3.866,3.136-7,7-7h59c1.681,0,3.22,0.592,4.426,1.576
		c-1.284-1.571-3.236-2.576-5.426-2.576h-59c-3.864,0-7,3.134-7,7v4c0,2.188,1.004,4.14,2.577,5.424
		C337.501,874.378,336.908,872.839,336.908,871.16z"/>
	<rect x="393.908" y="878.16" fill="#C4C4C4" width="1" height="12"/>
	<rect x="373.908" y="878.16" fill="#C4C4C4" width="1" height="12"/>
	<rect x="383.908" y="878.16" fill="#C4C4C4" width="1" height="12"/>
	<path fill="#C2C2C2" d="M360.008,867.784c0.286,0,0.531,0.024,0.75,0.073c-0.07-0.706-0.641-1.073-1.75-1.073h-0.414v2.454h0.467
		c0.203,0,0.366-0.029,0.533-0.057v-1.397H360.008L360.008,867.784z"/>
	<path fill="#C2C2C2" d="M362.28,867.35c-0.156-0.145-0.331-0.255-0.515-0.347c0.146,0.3,0.229,0.632,0.229,1.003
		s-0.07,0.7-0.21,0.991c-0.004,0.827-0.577,1.241-1.723,1.241h-0.037c-0.264,0.054-0.542,0.09-0.851,0.09h-0.58v3.166h-0.251v1
		h1.251v-3.166h0.58c0.861,0,1.549-0.209,2.057-0.625c0.508-0.418,0.763-0.983,0.763-1.697
		C362.992,868.34,362.756,867.787,362.28,867.35z"/>
	<rect x="365.151" y="866.699" fill="#C2C2C2" width="1" height="2.049"/>
	<polygon fill="#C2C2C2" points="369.979,866.699 369.979,873.494 369.728,873.494 369.728,874.494 370.979,874.494 
		370.979,866.699 	"/>
	<polygon fill="#C2C2C2" points="368.728,869.854 365.151,869.854 365.151,873.494 364.899,873.494 364.899,874.494 
		366.151,874.494 366.151,870.854 368.728,870.854 	"/>
	<path fill="#C2C2C2" d="M374.845,872.067c-0.269-0.436-0.414-0.929-0.414-1.493c0-0.82,0.297-1.51,0.892-2.068
		c0.594-0.563,1.323-0.848,2.188-0.848c0.625,0,1.173,0.15,1.651,0.445c-0.13-0.214-0.277-0.414-0.472-0.6
		c-0.581-0.559-1.298-0.839-2.152-0.846c-0.778,0.162-1.478,0.514-2.084,1.074c-0.438,0.4-0.759,0.846-0.973,1.327
		c-0.028,0.165-0.048,0.333-0.048,0.513c0,0.858,0.308,1.566,0.924,2.123C374.512,871.84,374.675,871.962,374.845,872.067z"/>
	<path fill="#C2C2C2" d="M380.565,867.744c-0.131-0.124-0.273-0.22-0.414-0.324c0.455,0.646,0.688,1.371,0.688,2.188
		c0,0.554-0.106,1.063-0.314,1.536c-0.105,0.587-0.386,1.102-0.845,1.537c-0.6,0.566-1.332,0.85-2.202,0.85
		c-0.005,0-0.01-0.001-0.016-0.001c-0.32,0.063-0.651,0.105-1,0.105c-0.965,0-1.833-0.298-2.62-0.86
		c0.204,0.293,0.438,0.569,0.734,0.814c0.854,0.697,1.813,1.046,2.886,1.046c1.21,0,2.241-0.392,3.099-1.177
		c0.852-0.781,1.278-1.729,1.278-2.853C381.838,869.492,381.412,868.538,380.565,867.744z"/>
	<polygon fill="#C2C2C2" points="390.325,866.699 390.325,873.969 384.279,868.036 384.279,873.494 384.028,873.494 
		384.028,874.494 385.279,874.494 385.279,869.036 391.325,874.969 391.325,866.699 	"/>
	<polygon fill="#C2C2C2" points="397.506,873.494 393.93,873.494 393.93,874.494 398.506,874.494 398.506,873.389 397.506,873.389 	
		"/>
	<polygon fill="#C2C2C2" points="394.182,872.389 395.182,872.389 395.182,870.783 398.408,870.783 398.408,869.678 
		397.408,869.678 397.408,869.783 394.182,869.783 	"/>
	<polygon fill="#C2C2C2" points="397.506,866.699 397.506,866.805 394.182,866.805 394.182,868.678 395.182,868.678 
		395.182,867.805 398.506,867.805 398.506,866.699 	"/>
	<path fill="#C2C2C2" d="M403.44,867.42c-0.188-0.309-0.37-0.512-0.542-0.604c-0.145-0.088-0.332-0.131-0.543-0.146
		c-0.342,0.098-0.65,0.252-0.918,0.475c-0.185,0.152-0.322,0.324-0.436,0.508c0.017,0.363,0.312,0.662,0.896,0.889l0.106,0.041
		c0.012-0.257,0.116-0.475,0.335-0.647c0.229-0.185,0.518-0.276,0.863-0.276c0.283,0,0.516,0.055,0.693,0.162
		c0.172,0.094,0.352,0.297,0.542,0.604l1.015-0.563c-0.275-0.45-0.612-0.779-1.004-0.997L403.44,867.42z"/>
	<path fill="#C2C2C2" d="M400.884,869.314c0.233,0.524,0.736,0.955,1.541,1.271l0.801,0.313c0.054,0.021,0.09,0.047,0.141,0.067
		c-0.011-0.052-0.009-0.108-0.023-0.158c-0.045-0.127-0.115-0.24-0.211-0.349c-0.096-0.106-0.219-0.205-0.367-0.298
		c-0.15-0.092-0.33-0.182-0.537-0.266l-0.801-0.313C401.219,869.506,401.053,869.41,400.884,869.314z"/>
	<path fill="#C2C2C2" d="M405.201,870.793c-0.183-0.217-0.436-0.411-0.74-0.589c0.135,0.28,0.209,0.594,0.209,0.946
		c0,0.418-0.1,0.789-0.271,1.123c-0.011,0.354-0.132,0.651-0.378,0.889c-0.258,0.245-0.582,0.367-0.973,0.367
		c-0.07,0-0.136-0.013-0.199-0.02c-0.265,0.075-0.544,0.124-0.849,0.124c-0.509,0-0.948-0.104-1.331-0.306
		c0.143,0.271,0.322,0.507,0.548,0.701c0.47,0.401,1.063,0.604,1.783,0.604c0.759,0,1.395-0.233,1.905-0.708
		c0.508-0.468,0.764-1.061,0.764-1.775C405.669,871.614,405.514,871.162,405.201,870.793z"/>
	<path fill="#C7C7C7" d="M401.705,872.498c-0.03-0.129-0.063-0.256-0.086-0.422l-0.541,0.111
		C401.251,872.344,401.456,872.451,401.705,872.498z"/>
	<path fill="#C2C2C2" d="M349.658,864.711c-2.521,0.242-4.508,2.257-4.708,4.789c0.08,0.57,0.273,1.119,0.573,1.613l-0.352,0.214
		h0.485v1.286v1.048v1h1v-2.334h-0.485l0.352-0.214c-0.402-0.662-0.615-1.424-0.615-2.203c0-2.344,1.907-4.25,4.25-4.25
		c0.917,0,1.763,0.299,2.456,0.794C351.937,865.502,350.877,864.855,349.658,864.711z"/>
	<path fill="#C2C2C2" d="M353.322,865.747c0.672,0.883,1.087,1.971,1.087,3.163c0,0.202-0.017,0.403-0.04,0.604
		c0.015,0.135,0.04,0.263,0.04,0.396c0,0.759-0.202,1.504-0.585,2.153l0.447,0.264h-0.612v1.334v1h1v-2.105l0.026,0.018
		c0.474-0.806,0.724-1.726,0.724-2.661C355.408,868.208,354.58,866.707,353.322,865.747z"/>
	<path fill="#D1D1D1" d="M360.334,865.835c-0.354-0.091-0.881-0.136-1.574-0.136h-1.418v7.795h1.251v-3.166h0.58
		c0.861,0,1.549-0.209,2.057-0.625c0.508-0.418,0.763-0.983,0.763-1.697c0-0.666-0.236-1.219-0.714-1.656
		C361.008,866.098,360.692,865.926,360.334,865.835z M359.062,869.238h-0.467v-2.454h0.414c1.185,0,1.776,0.4,1.776,1.206
		C360.784,868.822,360.211,869.238,359.062,869.238z"/>
	<polygon fill="#D1D1D1" points="368.728,868.748 365.151,868.748 365.151,865.699 363.899,865.699 363.899,873.494 
		365.151,873.494 365.151,869.854 368.728,869.854 368.728,873.494 369.979,873.494 369.979,865.699 368.728,865.699 	"/>
	<path fill="#D1D1D1" d="M376.525,865.553c-1.196,0-2.22,0.396-3.072,1.184c-0.854,0.785-1.282,1.729-1.282,2.824
		c0,1.25,0.469,2.262,1.405,3.029c0.854,0.697,1.813,1.046,2.886,1.046c1.21,0,2.241-0.392,3.099-1.177
		c0.852-0.781,1.278-1.731,1.278-2.854c0-1.113-0.426-2.067-1.273-2.861C378.72,865.949,377.705,865.553,376.525,865.553z
		 M378.679,871.682c-0.6,0.566-1.332,0.85-2.202,0.85c-0.802,0-1.509-0.277-2.122-0.832c-0.616-0.557-0.924-1.264-0.924-2.123
		c0-0.82,0.297-1.51,0.892-2.068c0.594-0.563,1.323-0.848,2.188-0.848c0.865,0,1.593,0.282,2.181,0.848
		c0.591,0.563,0.886,1.258,0.886,2.088C379.574,870.414,379.277,871.111,378.679,871.682z"/>
	<polygon fill="#D1D1D1" points="389.074,871.116 383.028,865.168 383.028,873.494 384.279,873.494 384.279,868.036 
		390.325,873.969 390.325,865.699 389.074,865.699 	"/>
	<polygon fill="#D1D1D1" points="392.93,873.494 397.506,873.494 397.506,872.389 394.182,872.389 394.182,869.783 397.408,869.783 
		397.408,868.678 394.182,868.678 394.182,866.805 397.506,866.805 397.506,865.699 392.93,865.699 	"/>
	<path fill="#D1D1D1" d="M404.201,869.793c-0.312-0.369-0.804-0.682-1.477-0.938l-0.828-0.318c-0.602-0.232-0.902-0.539-0.902-0.919
		c0-0.276,0.115-0.505,0.346-0.688c0.229-0.185,0.518-0.276,0.863-0.276c0.283,0,0.516,0.055,0.693,0.162
		c0.172,0.094,0.352,0.297,0.542,0.604l1.015-0.563c-0.535-0.872-1.281-1.311-2.237-1.311c-0.709,0-1.304,0.199-1.778,0.597
		c-0.476,0.395-0.714,0.884-0.714,1.47c0,0.866,0.565,1.524,1.702,1.977l0.801,0.313c0.207,0.084,0.387,0.173,0.537,0.265
		c0.148,0.093,0.271,0.191,0.367,0.298s0.166,0.223,0.211,0.35c0.044,0.125,0.064,0.265,0.064,0.416
		c0,0.377-0.129,0.688-0.387,0.935c-0.258,0.245-0.582,0.367-0.973,0.367c-0.494,0-0.869-0.168-1.127-0.504
		c-0.146-0.178-0.244-0.492-0.303-0.949l-1.268,0.262c0.114,0.729,0.402,1.292,0.864,1.693c0.47,0.401,1.063,0.604,1.781,0.604
		c0.761,0,1.396-0.233,1.907-0.708c0.508-0.468,0.764-1.061,0.764-1.775C404.669,870.614,404.514,870.162,404.201,869.793z"/>
	<path fill="#D1D1D1" d="M349.158,863.66c-2.895,0-5.25,2.354-5.25,5.25c0,0.954,0.262,1.888,0.75,2.703v2.048h1v-2.334h-0.485
		l0.352-0.214c-0.402-0.662-0.615-1.424-0.615-2.203c0-2.344,1.907-4.25,4.25-4.25c2.345,0,4.25,1.906,4.25,4.25
		c0,0.759-0.202,1.504-0.585,2.151l0.447,0.266h-0.612v2.334h1v-2.105l0.026,0.018c0.474-0.806,0.724-1.726,0.724-2.661
		C354.408,866.016,352.055,863.66,349.158,863.66z"/>
	<path fill="#B8B8B8" d="M571.965,752.153l6.977-3.915l-2.512-4.647c-1.05-1.94-3.478-2.669-5.421-1.616
		c-1.943,1.052-2.667,3.479-1.616,5.423L571.965,752.153z"/>
	<path fill="#B8B8B8" d="M549.182,764.938l6.977-3.913l-2.396-4.435c-1.05-1.94-3.478-2.67-5.421-1.616
		c-1.943,1.052-2.667,3.479-1.616,5.421L549.182,764.938z"/>
	<path fill="#B8B8B8" d="M526.399,777.724l6.977-3.915l-2.277-4.218c-1.05-1.94-3.479-2.668-5.421-1.616
		c-1.943,1.052-2.667,3.479-1.616,5.422L526.399,777.724z"/>
	<path fill="#B8B8B8" d="M503.615,790.509l6.979-3.916l-2.163-4.002c-1.051-1.942-3.478-2.669-5.421-1.616
		c-1.943,1.052-2.667,3.479-1.616,5.421L503.615,790.509z"/>
	<path fill="#B8B8B8" d="M480.83,803.293l6.979-3.915l-2.047-3.787c-1.05-1.94-3.478-2.67-5.421-1.616
		c-1.943,1.052-2.667,3.479-1.616,5.423L480.83,803.293z"/>
	<path fill="#B8B8B8" d="M458.048,816.078l6.978-3.915l-1.931-3.572c-1.05-1.941-3.479-2.669-5.421-1.616
		c-1.943,1.052-2.667,3.479-1.616,5.422L458.048,816.078z"/>
	<path fill="#BFBFBF" d="M493.912,878.911c-1.749,0-3.352-0.955-4.183-2.492l-33.333-61.667c-0.604-1.116-0.735-2.4-0.373-3.616
		s1.177-2.218,2.293-2.819c0.692-0.375,1.473-0.573,2.256-0.573c1.749,0,3.353,0.955,4.184,2.493l33.333,61.667
		c0.604,1.114,0.733,2.398,0.373,3.614c-0.362,1.218-1.179,2.22-2.293,2.821C495.476,878.713,494.697,878.911,493.912,878.911
		L493.912,878.911z M460.573,809.241c-0.534,0-1.066,0.136-1.542,0.393c-0.765,0.413-1.319,1.101-1.567,1.933
		s-0.157,1.711,0.256,2.475l33.333,61.667c0.566,1.052,1.665,1.705,2.86,1.705c0.534,0,1.067-0.136,1.541-0.394
		c0.767-0.411,1.321-1.099,1.569-1.931s0.157-1.711-0.256-2.475l-33.333-61.667C462.865,809.896,461.771,809.241,460.573,809.241
		L460.573,809.241z"/>
	<path fill="#BFBFBF" d="M516.579,865.911c-1.749,0-3.352-0.955-4.183-2.492l-33.333-61.667c-0.604-1.116-0.735-2.4-0.373-3.616
		s1.177-2.218,2.293-2.819c0.692-0.375,1.474-0.573,2.256-0.573c1.748,0,3.353,0.955,4.184,2.493l33.333,61.667
		c0.604,1.114,0.733,2.398,0.373,3.614c-0.362,1.218-1.179,2.22-2.293,2.821C518.143,865.713,517.364,865.911,516.579,865.911
		L516.579,865.911z M483.24,796.241c-0.534,0-1.065,0.136-1.542,0.393c-0.765,0.413-1.319,1.101-1.567,1.933
		s-0.157,1.711,0.256,2.475l33.333,61.667c0.566,1.052,1.665,1.705,2.86,1.705c0.534,0,1.067-0.136,1.541-0.394
		c0.767-0.411,1.321-1.099,1.569-1.931s0.157-1.711-0.256-2.475l-33.333-61.667C485.532,796.896,484.437,796.241,483.24,796.241
		L483.24,796.241z"/>
	<path fill="#BFBFBF" d="M539.246,852.911c-1.749,0-3.352-0.955-4.183-2.492l-33.333-61.667c-0.604-1.116-0.735-2.4-0.373-3.616
		s1.177-2.218,2.293-2.819c0.692-0.374,1.475-0.572,2.256-0.572c1.747,0,3.352,0.954,4.183,2.492l33.334,61.667
		c0.604,1.114,0.733,2.398,0.373,3.614c-0.362,1.218-1.179,2.22-2.293,2.821C540.81,852.713,540.031,852.911,539.246,852.911
		L539.246,852.911z M505.906,783.242c-0.533,0-1.066,0.136-1.542,0.392c-0.765,0.413-1.319,1.101-1.567,1.933
		s-0.157,1.711,0.256,2.475l33.333,61.667c0.566,1.052,1.665,1.705,2.86,1.705c0.534,0,1.067-0.136,1.541-0.394
		c0.767-0.411,1.321-1.099,1.569-1.931s0.157-1.711-0.256-2.475l-33.333-61.667C508.199,783.896,507.104,783.242,505.906,783.242
		L505.906,783.242z"/>
	<path fill="#BFBFBF" d="M561.913,839.911c-1.749,0-3.352-0.955-4.183-2.492l-33.333-61.667c-0.604-1.116-0.735-2.4-0.373-3.616
		s1.177-2.218,2.293-2.819c0.692-0.374,1.475-0.572,2.256-0.572c1.748,0,3.353,0.955,4.184,2.492l33.333,61.667
		c0.604,1.114,0.733,2.398,0.373,3.614c-0.362,1.218-1.179,2.22-2.293,2.821C563.477,839.713,562.698,839.911,561.913,839.911
		L561.913,839.911z M528.573,770.242c-0.535,0-1.066,0.136-1.543,0.393c-0.764,0.412-1.318,1.1-1.566,1.932
		c-0.248,0.831-0.157,1.711,0.256,2.475l33.333,61.667c0.566,1.052,1.665,1.705,2.86,1.705c0.534,0,1.067-0.136,1.541-0.394
		c0.767-0.411,1.321-1.099,1.569-1.931s0.157-1.711-0.256-2.475l-33.333-61.667C530.866,770.896,529.771,770.242,528.573,770.242
		L528.573,770.242z"/>
	<path fill="#BFBFBF" d="M584.58,826.911c-1.749,0-3.352-0.955-4.183-2.492l-33.333-61.667c-0.604-1.116-0.735-2.4-0.373-3.616
		s1.177-2.218,2.293-2.819c0.692-0.375,1.475-0.573,2.256-0.573c1.748,0,3.353,0.955,4.184,2.493l33.333,61.667
		c0.604,1.114,0.733,2.398,0.373,3.614c-0.362,1.218-1.179,2.22-2.293,2.821C586.144,826.713,585.365,826.911,584.58,826.911
		L584.58,826.911z M551.24,757.241c-0.533,0-1.065,0.136-1.542,0.393c-0.765,0.413-1.319,1.101-1.567,1.933
		s-0.157,1.711,0.256,2.475l33.333,61.667c0.566,1.052,1.665,1.705,2.862,1.705c0.532,0,1.065-0.136,1.541-0.394
		c0.765-0.411,1.319-1.099,1.567-1.931s0.157-1.711-0.256-2.475l-33.333-61.667C553.533,757.896,552.438,757.241,551.24,757.241
		L551.24,757.241z"/>
	<path fill="#BFBFBF" d="M607.247,813.911c-1.747,0-3.352-0.955-4.183-2.492l-33.333-61.667c-0.604-1.116-0.734-2.4-0.373-3.616
		c0.362-1.216,1.177-2.218,2.293-2.819c0.692-0.374,1.475-0.572,2.256-0.572c1.748,0,3.353,0.955,4.184,2.492l33.333,61.667
		c0.604,1.114,0.733,2.398,0.373,3.614c-0.362,1.218-1.179,2.22-2.293,2.821C608.811,813.713,608.031,813.911,607.247,813.911
		L607.247,813.911z M573.907,744.242c-0.532,0-1.066,0.136-1.542,0.392c-0.765,0.413-1.319,1.101-1.567,1.933
		s-0.157,1.711,0.256,2.475l33.333,61.667c0.566,1.052,1.665,1.705,2.861,1.705c0.533,0,1.066-0.136,1.541-0.394
		c0.766-0.411,1.32-1.099,1.568-1.931s0.157-1.711-0.256-2.475l-33.333-61.667C576.2,744.896,575.105,744.242,573.907,744.242
		L573.907,744.242z"/>
	<path fill="#D4D4D4" d="M495.493,868.252l-6.977,3.915l2.512,4.647c1.05,1.94,3.478,2.669,5.421,1.614
		c1.943-1.05,2.667-3.478,1.616-5.421L495.493,868.252z"/>
	<path fill="#D4D4D4" d="M518.278,855.467l-6.977,3.915l2.396,4.433c1.05,1.942,3.478,2.672,5.421,1.616
		c1.943-1.05,2.667-3.478,1.616-5.421L518.278,855.467z"/>
	<path fill="#D4D4D4" d="M541.061,842.682l-6.977,3.915l2.277,4.22c1.05,1.94,3.479,2.668,5.421,1.614
		c1.943-1.05,2.667-3.478,1.616-5.421L541.061,842.682z"/>
	<path fill="#D4D4D4" d="M563.845,829.896l-6.979,3.916l2.163,4.002c1.051,1.94,3.478,2.669,5.421,1.614
		c1.943-1.05,2.667-3.478,1.616-5.421L563.845,829.896z"/>
	<path fill="#D4D4D4" d="M586.628,817.112l-6.979,3.915l2.047,3.787c1.05,1.94,3.478,2.67,5.421,1.614
		c1.943-1.05,2.667-3.478,1.616-5.421L586.628,817.112z"/>
	<path fill="#D4D4D4" d="M609.41,804.327l-6.978,3.915l1.931,3.572c1.05,1.941,3.479,2.669,5.421,1.614
		c1.943-1.05,2.667-3.478,1.616-5.421L609.41,804.327z"/>
	
		<linearGradient id="SVGID_34_" gradientUnits="userSpaceOnUse" x1="443.967" y1="648.6689" x2="476.9214" y2="719.3397" gradientTransform="matrix(1 0 0 1 16.7998 159.3203)">
		<stop  offset="0" style="stop-color:#CFCFCF"/>
		<stop  offset="0.6006" style="stop-color:#C6C6C6"/>
		<stop  offset="1" style="stop-color:#BDBDBD"/>
	</linearGradient>
	<path fill="url(#SVGID_34_)" d="M493.912,878.161c-1.423,0-2.799-0.76-3.521-2.099l-33.333-61.668
		c-1.051-1.942-0.327-4.37,1.616-5.422c1.942-1.053,4.371-0.326,5.421,1.616l33.333,61.667c1.051,1.943,0.327,4.371-1.616,5.421
		C495.206,878.006,494.555,878.161,493.912,878.161L493.912,878.161z"/>
	
		<linearGradient id="SVGID_35_" gradientUnits="userSpaceOnUse" x1="466.634" y1="635.6689" x2="499.5892" y2="706.3414" gradientTransform="matrix(1 0 0 1 16.7998 159.3203)">
		<stop  offset="0" style="stop-color:#CFCFCF"/>
		<stop  offset="0.6006" style="stop-color:#C6C6C6"/>
		<stop  offset="1" style="stop-color:#BDBDBD"/>
	</linearGradient>
	<path fill="url(#SVGID_35_)" d="M516.579,865.161c-1.423,0-2.799-0.76-3.521-2.099l-33.333-61.668
		c-1.051-1.942-0.327-4.37,1.616-5.422c1.943-1.054,4.371-0.324,5.421,1.616l33.333,61.667c1.051,1.943,0.327,4.371-1.616,5.421
		C517.875,865.006,517.222,865.161,516.579,865.161L516.579,865.161z"/>
	
		<linearGradient id="SVGID_36_" gradientUnits="userSpaceOnUse" x1="489.3" y1="622.6689" x2="522.2549" y2="693.3405" gradientTransform="matrix(1 0 0 1 16.7998 159.3203)">
		<stop  offset="0" style="stop-color:#CFCFCF"/>
		<stop  offset="0.6006" style="stop-color:#C6C6C6"/>
		<stop  offset="1" style="stop-color:#BDBDBD"/>
	</linearGradient>
	<path fill="url(#SVGID_36_)" d="M539.246,852.161c-1.423,0-2.799-0.76-3.521-2.099l-33.333-61.668
		c-1.051-1.942-0.327-4.37,1.616-5.422c1.943-1.053,4.37-0.324,5.421,1.616l33.333,61.667c1.051,1.943,0.327,4.371-1.616,5.421
		C540.541,852.006,539.889,852.161,539.246,852.161L539.246,852.161z"/>
	
		<linearGradient id="SVGID_37_" gradientUnits="userSpaceOnUse" x1="511.968" y1="609.6689" x2="544.9227" y2="680.3406" gradientTransform="matrix(1 0 0 1 16.7998 159.3203)">
		<stop  offset="0" style="stop-color:#CFCFCF"/>
		<stop  offset="0.6006" style="stop-color:#C6C6C6"/>
		<stop  offset="1" style="stop-color:#BDBDBD"/>
	</linearGradient>
	<path fill="url(#SVGID_37_)" d="M561.913,839.161c-1.423,0-2.799-0.76-3.521-2.099l-33.333-61.668
		c-1.051-1.942-0.327-4.37,1.616-5.422c1.942-1.052,4.371-0.324,5.421,1.616l33.333,61.667c1.051,1.943,0.327,4.371-1.616,5.421
		C563.206,839.006,562.556,839.161,561.913,839.161L561.913,839.161z"/>
	
		<linearGradient id="SVGID_38_" gradientUnits="userSpaceOnUse" x1="534.635" y1="596.6689" x2="567.5898" y2="667.3406" gradientTransform="matrix(1 0 0 1 16.7998 159.3203)">
		<stop  offset="0" style="stop-color:#CFCFCF"/>
		<stop  offset="0.6006" style="stop-color:#C6C6C6"/>
		<stop  offset="1" style="stop-color:#BDBDBD"/>
	</linearGradient>
	<path fill="url(#SVGID_38_)" d="M584.58,826.161c-1.423,0-2.799-0.76-3.521-2.099l-33.333-61.668
		c-1.051-1.942-0.327-4.37,1.616-5.422c1.943-1.054,4.371-0.324,5.421,1.616l33.333,61.667c1.051,1.943,0.327,4.371-1.616,5.421
		C585.875,826.006,585.223,826.161,584.58,826.161L584.58,826.161z"/>
	
		<linearGradient id="SVGID_39_" gradientUnits="userSpaceOnUse" x1="557.302" y1="583.6699" x2="590.2563" y2="654.3406" gradientTransform="matrix(1 0 0 1 16.7998 159.3203)">
		<stop  offset="0" style="stop-color:#CFCFCF"/>
		<stop  offset="0.6006" style="stop-color:#C6C6C6"/>
		<stop  offset="1" style="stop-color:#BDBDBD"/>
	</linearGradient>
	<path fill="url(#SVGID_39_)" d="M607.247,813.161c-1.423,0-2.799-0.76-3.521-2.099l-33.333-61.668
		c-1.051-1.942-0.327-4.37,1.616-5.422c1.944-1.053,4.371-0.324,5.421,1.616l33.333,61.667c1.051,1.943,0.327,4.371-1.616,5.421
		C608.541,813.006,607.89,813.161,607.247,813.161L607.247,813.161z"/>
	<path fill="#5E5E5E" d="M479.365,798.566c-0.226,0.921-0.135,1.92,0.354,2.818l26.889,50.324l0.896-0.512L479.365,798.566z"/>
	<path fill="#5E5E5E" d="M502.027,785.346c-0.226,0.921-0.135,1.92,0.354,2.82l26.995,50.524l0.896-0.514L502.027,785.346z"/>
	<path fill="#5E5E5E" d="M524.688,772.125c-0.226,0.921-0.135,1.92,0.354,2.82l27.104,50.724l0.896-0.512L524.688,772.125z"/>
	<path fill="#5E5E5E" d="M547.349,758.904c-0.228,0.921-0.135,1.92,0.353,2.818l27.209,50.926l0.896-0.514L547.349,758.904z"/>
	<path fill="#5E5E5E" d="M570.01,745.684c-0.228,0.923-0.135,1.92,0.353,2.82l27.316,51.124l0.895-0.512L570.01,745.684z"/>
	
		<linearGradient id="SVGID_40_" gradientUnits="userSpaceOnUse" x1="222.8547" y1="432.8916" x2="269.8269" y2="533.6236" gradientTransform="matrix(1 0 0 1 16.7998 159.3203)">
		<stop  offset="0" style="stop-color:#454545"/>
		<stop  offset="1" style="stop-color:#333333"/>
	</linearGradient>
	<path fill="url(#SVGID_40_)" d="M275.927,697.426h-24.565c-2.71,0-4.915-2.205-4.915-4.916v-33.369H213.88
		c-2.71,0-4.916-2.206-4.916-4.917V629.66c0-2.711,2.205-4.916,4.916-4.916h32.566v-32.568c0-2.711,2.205-4.916,4.915-4.916h24.565
		c2.71,0,4.916,2.205,4.916,4.916v32.568h30.965c2.71,0,4.916,2.205,4.916,4.916v24.563c0,2.711-2.205,4.917-4.916,4.917h-30.965
		v33.369C280.843,695.221,278.638,697.426,275.927,697.426L275.927,697.426z M213.878,625.744c-2.159,0-3.916,1.757-3.916,3.916
		v24.563c0,2.16,1.756,3.917,3.916,3.917h33.566v34.369c0,2.159,1.758,3.916,3.915,3.916h24.565c2.159,0,3.916-1.757,3.916-3.916
		V658.14h31.965c2.159,0,3.916-1.757,3.916-3.917V629.66c0-2.159-1.756-3.916-3.916-3.916h-31.965v-33.568
		c0-2.159-1.756-3.916-3.916-3.916H251.36c-2.157,0-3.915,1.757-3.915,3.916v33.568H213.878L213.878,625.744z"/>
	
		<linearGradient id="SVGID_41_" gradientUnits="userSpaceOnUse" x1="182.011" y1="441.1016" x2="231.4353" y2="547.0925" gradientTransform="matrix(1 0 0 1 16.7998 159.3203)">
		<stop  offset="0" style="stop-color:#0D0D0D"/>
		<stop  offset="1" style="stop-color:#212121"/>
	</linearGradient>
	<path fill="url(#SVGID_41_)" d="M219.127,629.792h-1.442c-1.657,0-3,1.343-3,3v19.305c0,1.657,1.343,3,3,3h1.442
		c1.657,0,3-1.343,3-3v-19.305C222.127,631.135,220.784,629.792,219.127,629.792z"/>
	
		<linearGradient id="SVGID_42_" gradientUnits="userSpaceOnUse" x1="192.4211" y1="438.4194" x2="241.8421" y2="544.403" gradientTransform="matrix(1 0 0 1 16.7998 159.3203)">
		<stop  offset="0" style="stop-color:#0D0D0D"/>
		<stop  offset="1" style="stop-color:#212121"/>
	</linearGradient>
	<path fill="url(#SVGID_42_)" d="M230.788,629.792h-1.442c-1.657,0-3,1.343-3,3v19.305c0,1.657,1.343,3,3,3h1.442
		c1.655,0,3-1.343,3-3v-19.305C233.788,631.135,232.444,629.792,230.788,629.792z"/>
	
		<linearGradient id="SVGID_43_" gradientUnits="userSpaceOnUse" x1="202.824" y1="435.7227" x2="252.2529" y2="541.7231" gradientTransform="matrix(1 0 0 1 16.7998 159.3203)">
		<stop  offset="0" style="stop-color:#0D0D0D"/>
		<stop  offset="1" style="stop-color:#212121"/>
	</linearGradient>
	<path fill="url(#SVGID_43_)" d="M242.448,629.792h-1.44c-1.657,0-3,1.343-3,3v19.305c0,1.657,1.343,3,3,3h1.44c1.657,0,3-1.343,3-3
		v-19.305C245.448,631.135,244.105,629.792,242.448,629.792z"/>
	
		<linearGradient id="SVGID_44_" gradientUnits="userSpaceOnUse" x1="240.4583" y1="425.998" x2="289.888" y2="532.0005" gradientTransform="matrix(1 0 0 1 16.7998 159.3203)">
		<stop  offset="0" style="stop-color:#0D0D0D"/>
		<stop  offset="1" style="stop-color:#212121"/>
	</linearGradient>
	<path fill="url(#SVGID_44_)" d="M284.617,629.792h-1.442c-1.657,0-3,1.343-3,3v19.305c0,1.657,1.343,3,3,3h1.442
		c1.655,0,3-1.343,3-3v-19.305C287.617,631.135,286.273,629.792,284.617,629.792z"/>
	
		<linearGradient id="SVGID_45_" gradientUnits="userSpaceOnUse" x1="250.8669" y1="423.3145" x2="300.2949" y2="529.313" gradientTransform="matrix(1 0 0 1 16.7998 159.3203)">
		<stop  offset="0" style="stop-color:#0D0D0D"/>
		<stop  offset="1" style="stop-color:#212121"/>
	</linearGradient>
	<path fill="url(#SVGID_45_)" d="M296.277,629.792h-1.44c-1.657,0-3,1.343-3,3v19.305c0,1.657,1.343,3,3,3h1.44c1.657,0,3-1.343,3-3
		v-19.305C299.277,631.135,297.934,629.792,296.277,629.792z"/>
	
		<linearGradient id="SVGID_46_" gradientUnits="userSpaceOnUse" x1="261.2717" y1="420.623" x2="310.699" y2="526.6204" gradientTransform="matrix(1 0 0 1 16.7998 159.3203)">
		<stop  offset="0" style="stop-color:#0D0D0D"/>
		<stop  offset="1" style="stop-color:#212121"/>
	</linearGradient>
	<path fill="url(#SVGID_46_)" d="M307.938,629.792h-1.442c-1.655,0-3,1.343-3,3v19.305c0,1.657,1.345,3,3,3h1.442
		c1.657,0,3-1.343,3-3v-19.305C310.938,631.135,309.595,629.792,307.938,629.792z"/>
	
		<linearGradient id="SVGID_47_" gradientUnits="userSpaceOnUse" x1="193.1379" y1="411.9966" x2="256.6435" y2="548.1847" gradientTransform="matrix(1 0 0 1 16.7998 159.3203)">
		<stop  offset="0" style="stop-color:#0D0D0D"/>
		<stop  offset="1" style="stop-color:#212121"/>
	</linearGradient>
	<path fill="url(#SVGID_47_)" d="M273.463,683.129h-19.305c-1.657,0-3,1.343-3,3v1.441c0,1.655,1.343,3,3,3h19.305
		c1.657,0,3-1.345,3-3v-1.441C276.463,684.472,275.121,683.129,273.463,683.129z"/>
	
		<linearGradient id="SVGID_48_" gradientUnits="userSpaceOnUse" x1="199.0344" y1="412.9819" x2="262.5291" y2="549.1465" gradientTransform="matrix(1 0 0 1 16.7998 159.3203)">
		<stop  offset="0" style="stop-color:#0D0D0D"/>
		<stop  offset="1" style="stop-color:#212121"/>
	</linearGradient>
	<path fill="url(#SVGID_48_)" d="M273.463,671.468h-19.305c-1.657,0-3,1.343-3,3v1.442c0,1.656,1.343,3,3,3h19.305
		c1.657,0,3-1.344,3-3v-1.442C276.463,672.811,275.121,671.468,273.463,671.468z"/>
	
		<linearGradient id="SVGID_49_" gradientUnits="userSpaceOnUse" x1="204.9158" y1="413.9346" x2="268.4205" y2="550.1208" gradientTransform="matrix(1 0 0 1 16.7998 159.3203)">
		<stop  offset="0" style="stop-color:#0D0D0D"/>
		<stop  offset="1" style="stop-color:#212121"/>
	</linearGradient>
	<path fill="url(#SVGID_49_)" d="M273.463,659.807h-19.305c-1.657,0-3,1.346-3,3v1.443c0,1.656,1.343,3,3,3h19.305
		c1.657,0,3-1.344,3-3v-1.443C276.463,661.15,275.121,659.807,273.463,659.807z"/>
	
		<linearGradient id="SVGID_50_" gradientUnits="userSpaceOnUse" x1="226.2092" y1="417.4307" x2="289.7128" y2="553.6147" gradientTransform="matrix(1 0 0 1 16.7998 159.3203)">
		<stop  offset="0" style="stop-color:#0D0D0D"/>
		<stop  offset="1" style="stop-color:#212121"/>
	</linearGradient>
	<path fill="url(#SVGID_50_)" d="M273.463,617.639h-19.305c-1.657,0-3,1.346-3,3v1.442c0,1.657,1.343,3,3,3h19.305
		c1.657,0,3-1.343,3-3v-1.442C276.463,618.982,275.121,617.639,273.463,617.639z"/>
	
		<linearGradient id="SVGID_51_" gradientUnits="userSpaceOnUse" x1="232.0979" y1="418.397" x2="295.6056" y2="554.5895" gradientTransform="matrix(1 0 0 1 16.7998 159.3203)">
		<stop  offset="0" style="stop-color:#0D0D0D"/>
		<stop  offset="1" style="stop-color:#212121"/>
	</linearGradient>
	<path fill="url(#SVGID_51_)" d="M273.463,605.979h-19.305c-1.657,0-3,1.345-3,3v1.441c0,1.657,1.343,3,3,3h19.305
		c1.657,0,3-1.343,3-3v-1.441C276.463,607.321,275.121,605.979,273.463,605.979z"/>
	
		<linearGradient id="SVGID_52_" gradientUnits="userSpaceOnUse" x1="237.9875" y1="419.3682" x2="301.4882" y2="555.5458" gradientTransform="matrix(1 0 0 1 16.7998 159.3203)">
		<stop  offset="0" style="stop-color:#0D0D0D"/>
		<stop  offset="1" style="stop-color:#212121"/>
	</linearGradient>
	<path fill="url(#SVGID_52_)" d="M273.463,594.317h-19.305c-1.657,0-3,1.343-3,3v1.44c0,1.656,1.343,3,3,3h19.305
		c1.657,0,3-1.344,3-3v-1.44C276.463,595.66,275.121,594.317,273.463,594.317z"/>
</g>
</svg>
