<?xml version="1.0" encoding="UTF-8" standalone="no"?>
<!-- Generator: Adobe Illustrator 16.2.0, SVG Export Plug-In . SVG Version: 6.00 Build 0)  -->

<svg
   xmlns:osb="http://www.openswatchbook.org/uri/2009/osb"
   xmlns:dc="http://purl.org/dc/elements/1.1/"
   xmlns:cc="http://creativecommons.org/ns#"
   xmlns:rdf="http://www.w3.org/1999/02/22-rdf-syntax-ns#"
   xmlns:svg="http://www.w3.org/2000/svg"
   xmlns="http://www.w3.org/2000/svg"
   xmlns:xlink="http://www.w3.org/1999/xlink"
   xmlns:sodipodi="http://sodipodi.sourceforge.net/DTD/sodipodi-0.dtd"
   xmlns:inkscape="http://www.inkscape.org/namespaces/inkscape"
   version="1.1"
   id="svg2"
   inkscape:version="0.48.5 r10040"
   sodipodi:docname="icon.svg"
   x="0px"
   y="0px"
   width="480px"
   height="480px"
   viewBox="0 0 480 480"
   enable-background="new 0 0 480 480"
   xml:space="preserve"
   inkscape:export-filename="X:\shizo\dev\pro\Ryukisenga\svgdata\icon.png"
   inkscape:export-xdpi="96"
   inkscape:export-ydpi="96"><metadata
   id="metadata2999"><rdf:RDF><cc:Work
       rdf:about=""><dc:format>image/svg+xml</dc:format><dc:type
         rdf:resource="http://purl.org/dc/dcmitype/StillImage" /><dc:title /></cc:Work></rdf:RDF></metadata><defs
   id="defs2997"><linearGradient
     id="linearGradient4189"
     osb:paint="solid"><stop
       style="stop-color:#3e3e3e;stop-opacity:1;"
       offset="0"
       id="stop4191" /></linearGradient><linearGradient
     id="linearGradient3769"><stop
       style="stop-color:#ff0000;stop-opacity:1;"
       offset="0"
       id="stop3771" /><stop
       style="stop-color:#0000ff;stop-opacity:1;"
       offset="1"
       id="stop3773" /></linearGradient><linearGradient
     inkscape:collect="always"
     xlink:href="#linearGradient3769"
     id="linearGradient3775"
     x1="17.157899"
     y1="242.9388"
     x2="470.34717"
     y2="242.9388"
     gradientUnits="userSpaceOnUse" /><linearGradient
     inkscape:collect="always"
     xlink:href="#linearGradient3769-7"
     id="linearGradient3775-1"
     x1="17.1579"
     y1="242.9388"
     x2="470.34717"
     y2="242.9388"
     gradientUnits="userSpaceOnUse" /><linearGradient
     id="linearGradient3769-7"><stop
       style="stop-color:#ff0000;stop-opacity:1;"
       offset="0"
       id="stop3771-4" /><stop
       style="stop-color:#0000ff;stop-opacity:1;"
       offset="1"
       id="stop3773-0" /></linearGradient><linearGradient
     inkscape:collect="always"
     xlink:href="#linearGradient3769-7"
     id="linearGradient3815"
     x1="17.1579"
     y1="242.9388"
     x2="470.34717"
     y2="242.9388"
     gradientUnits="userSpaceOnUse" /><linearGradient
     id="linearGradient3817"><stop
       style="stop-color:#ff0000;stop-opacity:1;"
       offset="0"
       id="stop3819" /><stop
       style="stop-color:#0000ff;stop-opacity:1;"
       offset="1"
       id="stop3821" /></linearGradient><linearGradient
     inkscape:collect="always"
     xlink:href="#linearGradient3769-7"
     id="linearGradient3823"
     x1="17.1579"
     y1="242.9388"
     x2="470.34717"
     y2="242.9388"
     gradientUnits="userSpaceOnUse" /><linearGradient
     id="linearGradient3825"><stop
       style="stop-color:#ff0000;stop-opacity:1;"
       offset="0"
       id="stop3827" /><stop
       style="stop-color:#0000ff;stop-opacity:1;"
       offset="1"
       id="stop3829" /></linearGradient><linearGradient
     inkscape:collect="always"
     xlink:href="#linearGradient3769-7"
     id="linearGradient3831"
     x1="17.1579"
     y1="242.9388"
     x2="470.34717"
     y2="242.9388"
     gradientUnits="userSpaceOnUse" /><linearGradient
     id="linearGradient3833"><stop
       style="stop-color:#ff0000;stop-opacity:1;"
       offset="0"
       id="stop3835" /><stop
       style="stop-color:#0000ff;stop-opacity:1;"
       offset="1"
       id="stop3837" /></linearGradient><linearGradient
     inkscape:collect="always"
     xlink:href="#linearGradient3769-7"
     id="linearGradient3839"
     x1="17.1579"
     y1="242.9388"
     x2="470.34717"
     y2="242.9388"
     gradientUnits="userSpaceOnUse" /><linearGradient
     id="linearGradient3841"><stop
       style="stop-color:#ff0000;stop-opacity:1;"
       offset="0"
       id="stop3843" /><stop
       style="stop-color:#0000ff;stop-opacity:1;"
       offset="1"
       id="stop3845" /></linearGradient><linearGradient
     y2="242.9388"
     x2="470.34717"
     y1="242.9388"
     x1="17.1579"
     gradientUnits="userSpaceOnUse"
     id="linearGradient3852"
     xlink:href="#linearGradient3769-7"
     inkscape:collect="always" /><linearGradient
     y2="242.9388"
     x2="470.34717"
     y1="242.9388"
     x1="17.1579"
     gradientUnits="userSpaceOnUse"
     id="linearGradient3854"
     xlink:href="#linearGradient3769-7"
     inkscape:collect="always" /><linearGradient
     y2="242.9388"
     x2="470.34717"
     y1="242.9388"
     x1="17.1579"
     gradientUnits="userSpaceOnUse"
     id="linearGradient3856"
     xlink:href="#linearGradient3769-7"
     inkscape:collect="always" /><linearGradient
     y2="242.9388"
     x2="470.34717"
     y1="242.9388"
     x1="17.1579"
     gradientUnits="userSpaceOnUse"
     id="linearGradient3858"
     xlink:href="#linearGradient3769-7"
     inkscape:collect="always" /><linearGradient
     y2="242.9388"
     x2="470.34717"
     y1="242.9388"
     x1="17.1579"
     gradientUnits="userSpaceOnUse"
     id="linearGradient3860"
     xlink:href="#linearGradient3769-7"
     inkscape:collect="always" /><filter
     inkscape:collect="always"
     id="filter4135"
     x="-0.35402838"
     width="1.7080568"
     y="-0.36617653"
     height="1.7323531"><feGaussianBlur
       inkscape:collect="always"
       stdDeviation="66.703265"
       id="feGaussianBlur4137" /></filter><mask
     maskUnits="userSpaceOnUse"
     id="mask4185"><rect
       style="fill:#ffffff;fill-opacity:1;fill-rule:evenodd;stroke:#ffffff;stroke-width:4.53055286px;stroke-linecap:butt;stroke-linejoin:miter;stroke-opacity:1;display:inline"
       id="rect4187"
       width="475.45248"
       height="475.961"
       x="5.5178008"
       y="3.9413564"
       ry="50.338982" /></mask><linearGradient
     inkscape:collect="always"
     xlink:href="#linearGradient4189"
     id="linearGradient4193"
     x1="0.0084896088"
     y1="240.50848"
     x2="479.99153"
     y2="240.50848"
     gradientUnits="userSpaceOnUse"
     gradientTransform="matrix(0.97325997,0,0,0.97115191,6.4176082,6.4297351)" /><linearGradient
     inkscape:collect="always"
     xlink:href="#linearGradient3769-7"
     id="linearGradient4195"
     gradientUnits="userSpaceOnUse"
     x1="17.1579"
     y1="242.9388"
     x2="470.34717"
     y2="242.9388" /><linearGradient
     inkscape:collect="always"
     xlink:href="#linearGradient3769-7"
     id="linearGradient4197"
     gradientUnits="userSpaceOnUse"
     x1="17.1579"
     y1="242.9388"
     x2="470.34717"
     y2="242.9388" /><linearGradient
     inkscape:collect="always"
     xlink:href="#linearGradient3769-7"
     id="linearGradient4199"
     gradientUnits="userSpaceOnUse"
     x1="17.1579"
     y1="242.9388"
     x2="470.34717"
     y2="242.9388" /><linearGradient
     inkscape:collect="always"
     xlink:href="#linearGradient3769-7"
     id="linearGradient4201"
     gradientUnits="userSpaceOnUse"
     x1="17.1579"
     y1="242.9388"
     x2="470.34717"
     y2="242.9388" /><linearGradient
     inkscape:collect="always"
     xlink:href="#linearGradient3769-7"
     id="linearGradient4203"
     gradientUnits="userSpaceOnUse"
     x1="17.1579"
     y1="242.9388"
     x2="470.34717"
     y2="242.9388" /><linearGradient
     inkscape:collect="always"
     xlink:href="#linearGradient3769-7"
     id="linearGradient3045"
     gradientUnits="userSpaceOnUse"
     x1="17.1579"
     y1="242.9388"
     x2="470.34717"
     y2="242.9388"
     gradientTransform="matrix(0.92722881,0,0,0.92722881,15.002576,16.26557)" /><linearGradient
     inkscape:collect="always"
     xlink:href="#linearGradient3769-7"
     id="linearGradient3048"
     gradientUnits="userSpaceOnUse"
     x1="17.1579"
     y1="242.9388"
     x2="470.34717"
     y2="242.9388"
     gradientTransform="matrix(0.92722881,0,0,0.92722881,15.002576,16.26557)" /><linearGradient
     inkscape:collect="always"
     xlink:href="#linearGradient3769-7"
     id="linearGradient3051"
     gradientUnits="userSpaceOnUse"
     x1="17.1579"
     y1="242.9388"
     x2="470.34717"
     y2="242.9388"
     gradientTransform="matrix(0.92722881,0,0,0.92722881,15.002576,16.26557)" /><linearGradient
     inkscape:collect="always"
     xlink:href="#linearGradient3769-7"
     id="linearGradient3054"
     gradientUnits="userSpaceOnUse"
     x1="17.1579"
     y1="242.9388"
     x2="470.34717"
     y2="242.9388"
     gradientTransform="matrix(1.8544576,0,0,1.8544576,14.1728,16.05622)" /></defs>
<sodipodi:namedview
   inkscape:cy="159.7435"
   inkscape:cx="150.72046"
   inkscape:zoom="0.69532167"
   showgrid="false"
   guidetolerance="10"
   gridtolerance="10"
   objecttolerance="10"
   borderopacity="1"
   bordercolor="#666666"
   pagecolor="#ffffff"
   id="namedview10"
   inkscape:pageopacity="0"
   inkscape:pageshadow="2"
   inkscape:window-width="2560"
   inkscape:window-height="1377"
   inkscape:window-x="-8"
   inkscape:window-y="-8"
   inkscape:current-layer="layer2"
   inkscape:window-maximized="1">
	</sodipodi:namedview>

<g
   inkscape:groupmode="layer"
   id="layer1"
   inkscape:label="Back"
   style="display:inline"><rect
     style="fill:#000000;fill-opacity:1;fill-rule:evenodd;stroke:url(#linearGradient4193);stroke-width:17.72427749999999900;stroke-linecap:butt;stroke-linejoin:miter;stroke-miterlimit:4;stroke-opacity:1;stroke-dasharray:none"
     id="rect3777"
     width="462.73889"
     height="462.23044"
     x="8.6305742"
     y="8.8847933"
     ry="48.886799" /></g><g
   style="display:inline"
   inkscape:label="Front copy"
   id="g4115"
   inkscape:groupmode="layer"><g
     style="stroke:url(#linearGradient3860);stroke-width:10;stroke-linecap:butt;stroke-linejoin:bevel;stroke-miterlimit:4;stroke-dasharray:none;stroke-dashoffset:0;filter:url(#filter4135)"
     id="g4117"
     transform="matrix(0.92343651,0,0,0.92343651,15.926961,17.186868)"
     mask="url(#mask4185)"><path
       style="fill:none;stroke:url(#linearGradient3852);stroke-width:10;stroke-linecap:butt;stroke-linejoin:bevel;stroke-miterlimit:4;stroke-dasharray:none;stroke-dashoffset:0"
       id="path4119"
       d="m 50.604,113.419 2.813,2.813 c 0.615,0.63 0.938,2.197 0.938,4.688 0,3.75 -5.318,12.189 -15.939,25.315 -0.63,14.387 2.183,23.44 8.438,27.19 16.877,-28.128 27.806,-45.942 32.816,-53.443 4.365,-7.501 7.5,-11.251 9.376,-11.251 1.245,1.26 1.245,2.813 0,4.688 -5.626,11.251 -9.699,20.627 -12.189,28.128 -2.505,7.501 -5.01,17.199 -7.501,29.066 -3.135,9.376 -5.01,16.876 -5.625,22.502 0,1.26 -1.26,5.948 -3.75,14.064 -1.26,3.12 -3.135,4.688 -5.625,4.688 -6.255,0 -11.574,-4.366 -15.939,-13.126 -5.01,-9.376 -7.5,-20.305 -7.5,-32.816 l 1.875,-19.69 c 2.491,-10.621 3.75,-17.814 3.75,-21.564 -10.006,-13.742 -15.001,-22.502 -15.001,-26.253 0,-3.121 0.308,-4.996 0.938,-5.625 10.618,6.884 19.994,13.755 28.125,20.626 z M 82.482,48.724 c 1.245,2.505 1.245,4.38 0,5.625 -3.75,3.75 -7.501,6.886 -11.251,9.376 -13.756,6.886 -21.565,11.251 -23.44,13.126 -3.135,2.505 -5.318,4.073 -6.563,4.688 -1.26,-1.245 -1.26,-2.49 0,-3.75 3.75,-6.871 7.809,-12.496 12.189,-16.876 4.996,-3.75 6.563,-8.438 4.688,-14.064 -2.505,-3.121 -5.318,-5.934 -8.438,-8.438 l -2.813,-0.938 c 0.615,-0.616 2.813,-1.246 6.563,-1.875 13.126,-1.245 22.81,3.135 29.065,13.126 z m 42.192,93.761 c 0,5.625 -1.875,15.631 -5.625,30.003 -3.75,13.756 -12.189,24.07 -25.315,30.941 -5.011,0 -7.501,-4.996 -7.501,-15.001 0,-4.366 1.245,-8.116 3.75,-11.251 14.372,-15.001 21.873,-30.941 22.502,-47.817 l -0.938,-7.501 c 2.491,0.63 4.688,1.567 6.563,2.813 4.367,5.008 6.564,10.942 6.564,17.813 z m 64.695,-82.51 c 4.996,2.505 3.428,5.318 -4.688,8.438 -11.881,2.505 -21.257,6.256 -28.128,11.251 6.241,3.135 13.434,7.193 21.565,12.188 6.241,3.75 10.313,7.823 12.189,12.189 5.625,13.126 3.428,18.752 -6.563,16.877 -2.505,-0.615 -5.318,-2.813 -8.438,-6.563 -4.38,-5.625 -7.193,-9.376 -8.438,-11.251 -13.756,7.501 -27.513,13.756 -41.254,18.752 -3.75,0.63 -8.438,-1.553 -14.064,-6.563 -3.135,-1.875 -5.625,-4.688 -7.5,-8.438 2.49,0 5.625,-0.615 9.376,-1.875 3.121,-3.12 5.303,-5.933 6.563,-8.438 2.491,-3.75 5.626,-8.438 9.376,-14.064 l -6.563,0.938 -15.939,-0.938 c -6.255,-3.75 -11.881,-7.5 -16.876,-11.251 -2.505,-1.875 -2.505,-2.813 0,-2.813 26.868,-1.245 45.942,-3.428 57.193,-6.563 3.121,-1.875 6.871,-3.428 11.251,-4.688 4.366,-1.875 8.746,-2.813 13.126,-2.813 5.623,0.63 11.556,2.505 17.812,5.625 z M 165.928,39.348 c 0,1.26 -2.505,3.135 -7.5,5.625 -13.126,2.505 -24.7,7.501 -34.691,15.001 v -0.938 c 3.75,-6.871 8.116,-13.126 13.126,-18.752 -1.875,-3.121 -5.318,-6.871 -10.313,-11.251 -1.875,-1.875 -2.813,-3.121 -2.813,-3.75 4.996,-0.615 9.991,-0.938 15.001,-0.938 19.368,1.877 28.436,6.887 27.19,15.003 z m -19.689,98.449 c 1.875,2.505 2.813,5.948 2.813,10.313 1.875,-2.491 4.058,-4.688 6.563,-6.563 -3.135,18.752 -6.563,38.134 -10.313,58.131 -1.26,0.63 -3.135,0.322 -5.625,-0.938 -7.501,-8.116 -10.636,-16.555 -9.376,-25.315 3.12,-8.746 4.996,-17.814 5.625,-27.19 0,-5.625 -0.938,-10.313 -2.813,-14.064 -0.63,-1.875 -1.567,-3.12 -2.813,-3.75 1.245,0 3.12,0.323 5.625,0.938 4.996,2.504 8.439,5.317 10.314,8.438 z m -7.501,-42.193 c -1.875,2.505 -3.135,4.38 -3.75,5.626 6.241,-1.875 11.866,-3.428 16.876,-4.688 3.75,-1.246 7.179,-2.491 10.314,-3.75 l -3.75,-5.626 c -1.26,-1.875 -2.813,-4.058 -4.688,-6.563 -8.131,6.886 -13.126,11.881 -15.002,15.001 z m 41.255,29.066 c 1.875,1.875 2.813,4.38 2.813,7.5 v 18.752 c 0,2.505 0.615,9.068 1.875,19.69 0.615,3.75 4.058,6.885 10.313,9.376 18.752,8.761 27.806,17.199 27.19,25.315 -1.875,1.26 -4.688,1.875 -8.438,1.875 -11.251,0 -22.195,-4.058 -32.816,-12.189 -10.636,-8.746 -15.939,-16.877 -15.939,-24.377 v -36.566 c -2.505,-1.875 -5.01,-2.183 -7.5,-0.938 3.12,-4.996 7.178,-8.438 12.188,-10.314 3.75,-0.615 7.179,0.001 10.314,1.876 z"
       stroke-miterlimit="10"
       inkscape:connector-curvature="0" /><path
       style="fill:none;stroke:url(#linearGradient3854);stroke-width:10;stroke-linecap:butt;stroke-linejoin:bevel;stroke-miterlimit:4;stroke-dasharray:none;stroke-dashoffset:0"
       id="path4121"
       d="m 282.191,108.731 -0.938,1.875 c 3.121,1.26 7.178,0.63 12.189,-1.875 7.5,-1.875 16.877,-5.303 28.127,-10.313 1.875,-1.875 4.365,-4.366 7.502,-7.501 2.49,0.63 7.178,2.505 14.063,5.626 1.246,1.26 1.246,2.505 0,3.75 -12.51,8.131 -21.256,14.386 -26.252,18.752 4.365,4.38 6.24,7.501 5.625,9.376 l -2.813,8.438 c -5.01,11.881 -8.131,22.825 -9.375,32.816 l 0.938,3.75 c 7.5,0 15.939,-11.559 25.314,-34.691 2.49,-6.871 4.059,-8.116 4.688,-3.75 -6.885,26.253 -11.572,43.452 -14.063,51.568 -3.137,10.006 -6.887,15.002 -11.252,15.002 -14.387,-3.121 -21.258,-12.189 -20.627,-27.19 1.244,-13.742 2.813,-22.502 4.688,-26.253 1.246,-4.996 3.75,-11.251 7.5,-18.752 -2.504,1.875 -8.76,7.823 -18.752,17.814 -8.131,8.13 -14.385,14.694 -18.752,19.689 -4.379,5.01 -8.438,8.438 -12.188,10.313 -6.256,-6.241 -7.193,-11.559 -2.813,-15.939 l 6.563,-6.563 c 13.127,-13.126 24.377,-24.993 33.754,-35.629 -4.381,1.875 -9.699,3.443 -15.939,4.688 -5.625,0.63 -9.699,-1.245 -12.189,-5.625 -1.26,-2.49 -0.938,-4.688 0.938,-6.563 2.49,-3.75 8.117,-7.501 16.877,-11.251 6.871,-3.12 12.805,-6.563 17.814,-10.313 -1.875,-3.75 -5.01,-6.871 -9.375,-9.376 -4.381,3.135 -10.637,7.193 -18.752,12.189 l -2.814,0.938 c -6.885,-5.625 -10.313,-9.991 -10.313,-13.126 0,-10.621 2.813,-14.679 8.438,-12.189 l 7.502,7.501 c 8.115,-2.491 15.939,-4.996 23.439,-7.501 0,-3.12 0,-6.563 0,-10.313 0,-1.875 -1.26,-4.058 -3.75,-6.563 -1.875,-3.121 -2.506,-4.996 -1.875,-5.626 1.875,-2.49 4.996,-3.75 9.375,-3.75 10.621,0.63 15.617,6.255 15.002,16.876 -0.629,8.131 -1.875,15.939 -3.75,23.44 5.625,-3.75 10.93,-7.808 15.939,-12.188 l -2.813,-4.688 4.688,-1.875 c 4.996,0 8.746,0.63 11.252,1.875 2.49,0 4.057,1.567 4.688,4.688 0.615,3.135 -1.568,6.255 -6.564,9.376 -10.006,5.625 -23.762,12.511 -41.254,20.627 -7.5,2.503 -14.065,5.316 -19.69,8.436 z m 13.127,-30.003 h 5.625 v -7.501 c -2.506,3.75 -4.381,6.255 -5.625,7.501 z m 75.945,-34.692 c 8.746,-2.491 21.564,-4.366 38.441,-5.625 h 14.064 c 6.871,0 13.127,1.26 18.752,3.75 4.996,2.505 9.684,5.948 14.064,10.313 1.244,1.875 1.244,3.443 0,4.688 -4.381,3.135 -10.637,5.01 -18.752,5.625 -14.387,1.875 -24.07,3.443 -29.066,4.688 v 1.875 l 5.625,-0.938 c 1.875,0 4.059,0.322 6.564,0.938 8.746,3.135 9.375,6.563 1.875,10.313 -5.627,2.505 -10.314,3.75 -14.064,3.75 0,1.875 0,4.38 0,7.5 4.996,-1.245 9.377,-1.875 13.127,-1.875 5.625,0 11.25,1.567 16.877,4.688 4.365,2.505 8.115,6.563 11.25,12.189 -1.26,3.75 -2.504,7.823 -3.75,12.188 -3.135,10.636 -6.256,17.199 -9.375,19.69 -5.012,1.875 -10.945,2.813 -17.814,2.813 l -9.377,2.813 c 0,1.875 0,4.073 0,6.563 18.123,-0.615 30.941,-1.553 38.441,-2.813 15.617,1.26 22.811,6.255 21.564,15.001 -1.875,1.875 -5.625,2.813 -11.25,2.813 -11.252,-1.246 -23.764,-2.491 -37.504,-3.75 l -10.314,0.938 -0.938,8.438 c 0.615,7.5 0.938,16.261 0.938,26.253 0,10.006 -0.322,18.43 -0.938,25.315 -2.506,11.867 -7.193,11.867 -14.064,0 -2.504,-5.01 -3.75,-10.636 -3.75,-16.877 v -41.254 h -3.75 c -15.631,3.135 -29.389,6.256 -41.254,9.376 l -2.814,-1.875 c -3.75,-3.75 -4.379,-6.871 -1.875,-9.376 16.877,-5.625 29.682,-10.929 38.441,-15.939 -5.625,0 -10.313,-1.875 -14.063,-5.625 -5.627,-7.5 -9.377,-15.309 -11.252,-23.44 -1.875,-8.116 -2.813,-13.434 -2.813,-15.939 0,-4.366 0.938,-7.501 2.813,-9.376 1.246,-1.875 2.813,-2.813 4.688,-2.813 3.121,8.761 6.564,17.507 10.314,26.253 5.625,-1.875 13.127,-3.75 22.502,-5.626 0,-1.245 0,-2.813 0,-4.688 -6.256,0 -11.572,-0.308 -15.939,-0.938 -1.26,0 -3.441,-0.615 -6.563,-1.875 1.875,-1.246 4.365,-2.491 7.5,-3.75 4.996,-2.491 10.314,-4.688 15.939,-6.563 0,-3.12 -0.322,-5.625 -0.938,-7.5 -13.127,-1.875 -21.887,-4.688 -26.252,-8.438 -8.762,-0.615 -13.449,-6.241 -14.064,-16.877 l 3.75,-22.502 c 0.615,-3.12 0.938,-4.996 0.938,-5.625 4.998,3.135 9.686,7.501 14.066,13.126 z m 9.375,8.439 c -5.01,0 -7.822,2.197 -8.438,6.563 0,5.625 -0.938,10.314 -2.813,14.064 1.244,0 3.428,0.322 6.563,0.938 4.365,0 10.314,-0.616 17.814,-1.875 0.615,-4.996 -0.629,-8.746 -3.75,-11.251 -0.631,-3.121 1.553,-5.303 6.563,-6.563 6.242,0 10.314,2.505 12.189,7.501 7.5,-2.491 13.127,-6.241 16.877,-11.251 l -29.066,-1.875 c -6.884,-0.617 -12.187,0.628 -15.939,3.749 z m -7.5,69.382 c 1.246,5.625 3.121,9.068 5.625,10.313 2.492,-3.75 4.689,-6.563 6.564,-8.438 -3.749,-0.615 -7.823,-1.245 -12.189,-1.875 z m 18.752,29.066 v -3.75 c -2.506,1.26 -8.131,3.442 -16.877,6.563 8.747,-1.246 14.372,-2.183 16.877,-2.813 z m -12.189,-15.939 c 5.627,-1.245 9.377,-2.491 11.252,-3.75 0,-1.875 0,-3.75 0,-5.625 -6.256,4.379 -10.006,7.5 -11.252,9.375 z m 29.066,-32.816 c 0,1.875 0,3.75 0,5.625 6.24,0 9.055,2.505 8.438,7.501 0,2.505 -2.197,4.38 -6.563,5.625 -0.629,1.875 -0.938,4.38 -0.938,7.5 13.742,-2.49 19.998,-11.251 18.752,-26.252 -2.506,-1.875 -4.072,-2.813 -4.688,-2.813 -5.624,0.631 -10.635,1.568 -15.001,2.814 z"
       stroke-miterlimit="10"
       inkscape:connector-curvature="0" /><path
       style="fill:none;stroke:url(#linearGradient3856);stroke-width:10;stroke-linecap:butt;stroke-linejoin:bevel;stroke-miterlimit:4;stroke-dasharray:none;stroke-dashoffset:0"
       id="path4123"
       d="m 109.673,385.323 c -8.131,11.251 -20.319,24.07 -36.566,38.441 -15.631,13.757 -26.253,20.628 -31.878,20.628 -16.877,0 -24.7,-6.871 -23.44,-20.628 0,-4.995 1.245,-8.746 3.75,-11.251 6.241,-4.365 10.621,-6.563 13.126,-6.563 -1.875,5.626 -2.813,10.006 -2.813,13.127 0,2.505 0.615,3.442 1.875,2.813 6.871,-1.875 19.06,-7.809 36.566,-17.814 16.247,-10.621 28.128,-20.305 35.629,-29.065 2.491,-0.002 3.751,3.44 3.751,10.312 z M 98.422,284.999 c 3.75,2.505 5.303,4.688 4.688,6.563 -1.26,3.135 -6.256,7.193 -15.002,12.188 -20.012,12.512 -31.878,21.888 -35.628,28.128 h 2.813 c 4.996,0 11.559,-1.875 19.689,-5.625 6.241,-3.121 10.314,-4.688 12.189,-4.688 2.491,0 5.303,0.938 8.438,2.813 2.491,1.876 3.75,5.318 3.75,10.314 -5.625,4.38 -10.636,8.13 -15.001,11.251 -4.38,3.135 -9.068,7.823 -14.064,14.063 -1.26,3.136 0.308,3.443 4.688,0.938 9.376,-6.24 15.002,-9.054 16.877,-8.438 7.501,3.135 11.251,6.255 11.251,9.376 -5.01,6.255 -13.756,13.126 -26.253,20.627 -14.386,8.761 -26.253,15.001 -35.629,18.752 v -0.938 l 4.688,-5.626 c 6.871,-5.625 12.189,-10.621 15.939,-15.002 -5.011,0.631 -10.006,1.261 -15.002,1.876 -6.885,0 -10.636,-3.751 -11.251,-11.252 0,-1.875 6.241,-9.054 18.752,-21.564 l 2.813,-1.875 c -5.626,0 -11.881,1.26 -18.752,3.75 -3.75,1.26 -6.563,0.938 -8.438,-0.938 -3.75,-4.995 -5.626,-9.376 -5.626,-13.126 l 1.875,-5.626 c 16.876,-15.617 31.556,-29.065 44.067,-40.316 -3.135,-1.876 -3.75,-3.429 -1.875,-4.688 3.121,-4.365 7.809,-6.871 14.064,-7.501 4.366,10e-4 9.684,2.199 15.94,6.564 z m 67.506,-19.689 c 8.116,2.505 12.804,5.626 14.064,9.376 1.245,3.75 -1.26,6.563 -7.501,8.438 l -20.627,5.625 c -7.5,0.631 -14.386,2.506 -20.627,5.626 2.49,4.381 4.688,10.943 6.563,19.689 12.497,-9.991 24.993,-16.877 37.504,-20.627 3.75,0 7.179,0.322 10.314,0.938 7.5,2.505 12.188,6.563 14.064,12.188 1.245,3.751 1.875,6.256 1.875,7.501 0,4.381 -0.938,10.313 -2.813,17.814 -1.875,7.501 -5.01,14.694 -9.376,21.565 -3.75,4.38 -6.563,5.947 -8.438,4.688 -2.505,-3.75 -5.948,-5.625 -10.314,-5.625 -4.38,0 -7.5,0.938 -9.376,2.813 6.871,5.01 9.684,13.448 8.438,25.315 0,-6.871 0,8.438 0,45.942 0,10.006 -0.63,17.507 -1.875,22.502 -1.26,4.366 -4.688,8.438 -10.313,12.188 -3.75,1.246 -8.761,-1.875 -15.002,-9.376 -6.255,-7.5 -10.636,-14.063 -13.126,-19.689 -1.26,-2.49 -2.505,-4.995 -3.75,-7.501 l -8.438,5.626 c -6.886,1.26 -10.636,-2.813 -11.251,-12.188 0,-2.491 2.813,-6.563 8.438,-12.189 8.116,-7.5 12.189,-13.741 12.189,-18.752 l -2.813,-4.688 c -1.875,-3.751 -3.135,-6.871 -3.75,-9.376 11.251,1.875 19.06,5.01 23.44,9.376 1.875,4.38 2.49,8.761 1.875,13.126 1.875,0 3.75,-0.308 5.625,-0.938 l 0.938,-16.877 v -8.438 c -2.505,-4.995 -5.625,-8.746 -9.376,-11.251 -3.75,-0.615 -6.885,-1.875 -9.376,-3.75 -9.376,-6.241 -14.386,-17.492 -15.001,-33.754 1.245,-19.997 7.179,-34.062 17.814,-42.192 9.991,-8.746 18.43,-13.126 25.315,-13.126 h 4.687 z m -30.94,150.015 -3.75,3.751 c 4.366,5.625 9.991,10.636 16.877,15.001 l 3.75,-1.875 c 0,-3.75 0,-7.179 0,-10.313 -0.63,-8.116 -0.938,-15.939 -0.938,-23.439 -8.131,9.375 -13.449,15 -15.939,16.875 z M 150.927,308.44 c -4.38,1.875 -8.761,4.38 -13.126,7.5 0,1.261 0.308,2.813 0.938,4.688 4.996,-1.245 11.251,-2.813 18.752,-4.688 10.621,-0.615 15.309,1.876 14.064,7.501 0,0.63 -2.813,3.443 -8.438,8.438 -4.38,3.751 -8.438,6.886 -12.189,9.376 12.497,-1.245 19.998,-2.183 22.502,-2.813 3.121,-6.871 4.996,-11.559 5.625,-14.064 0.615,-2.49 0.938,-8.115 0.938,-16.876 -1.875,-1.246 -3.443,-1.876 -4.688,-1.876 -3.135,-0.615 -6.563,-0.938 -10.313,-0.938 -3.75,0 -8.44,1.26 -14.065,3.752 z m -9.376,32.815 h 1.875 l 3.75,-7.501 c -2.505,-0.615 -4.688,-0.615 -6.563,0 l 0.938,7.501 z m 73.133,30.942 c 1.245,2.505 0.615,4.688 -1.875,6.563 -11.251,7.501 -17.814,13.127 -19.69,16.877 v 0.938 c 3.121,1.876 8.438,4.073 15.939,6.563 11.251,4.381 18.752,10.006 22.502,16.877 1.875,3.135 1.553,5.948 -0.938,8.438 -1.875,1.26 -5.01,2.197 -9.376,2.813 h -11.251 c -6.885,0 -11.251,-0.938 -13.126,-2.813 -3.135,-1.875 -3.75,-3.429 -1.875,-4.688 4.366,0 7.5,-1.245 9.376,-3.75 -1.26,-1.245 -4.38,-3.12 -9.376,-5.626 -12.511,-5.625 -19.69,-9.684 -21.565,-12.188 -1.875,-2.49 -2.813,-5.626 -2.813,-9.376 0.616,-2.49 1.875,-4.688 3.75,-6.563 3.75,-4.365 9.054,-8.438 15.939,-12.188 l -3.75,-2.813 c -3.75,0 -6.255,0 -7.501,0 5.626,-4.366 11.251,-7.179 16.877,-8.438 7.502,-0.618 13.743,2.502 18.753,9.374 z"
       stroke-miterlimit="10"
       inkscape:connector-curvature="0" /><path
       style="fill:none;stroke:url(#linearGradient3858);stroke-width:10;stroke-linecap:butt;stroke-linejoin:bevel;stroke-miterlimit:4;stroke-dasharray:none;stroke-dashoffset:0"
       id="path4125"
       d="m 300.943,410.638 c 2.49,3.135 4.365,6.886 5.625,11.251 10.621,-3.12 21.873,-4.995 33.754,-5.625 8.746,-2.491 19.689,-3.429 32.816,-2.813 l 21.564,0.938 c 8.746,0.63 14.373,2.198 16.877,4.688 1.875,1.26 1.553,3.135 -0.938,5.625 -3.75,1.876 -11.25,3.443 -22.502,4.688 -31.264,3.75 -54.381,8.131 -69.383,13.126 -6.256,3.136 -11.574,4.688 -15.939,4.688 -3.135,0 -7.193,-1.553 -12.188,-4.688 -5.627,-3.12 -8.439,-8.438 -8.439,-15.938 0,-7.501 -2.506,-14.68 -7.5,-21.565 -5.627,-6.87 -5.627,-10.313 0,-10.313 13.741,0.628 22.503,5.947 26.253,15.938 z M 409.705,284.999 c 1.246,1.26 1.246,2.505 0,3.75 -3.75,3.751 -7.822,6.563 -12.189,8.438 -5.625,2.506 -13.125,4.073 -22.502,4.688 l 0.938,22.502 c 3.75,0 8.117,-0.308 13.127,-0.938 7.5,-0.615 15.617,1.26 24.377,5.626 8.746,4.38 13.742,9.376 15.002,15.002 -3.135,8.761 -5.947,17.814 -8.438,27.19 -8.762,24.377 -16.877,37.504 -24.379,39.379 -5.625,1.875 -10.635,0.322 -15.002,-4.688 -2.504,-2.49 -4.379,-4.058 -5.625,-4.688 -10.635,0 -22.195,2.197 -34.691,6.563 -13.756,0 -24.699,-9.684 -32.816,-29.066 -8.129,-20.627 -12.188,-31.556 -12.188,-32.815 0,-1.245 1.553,-2.49 4.688,-3.751 3.121,-0.615 10.314,5.948 21.564,19.69 l 2.813,2.813 c 8.746,-4.366 17.492,-7.809 26.254,-10.313 0.615,-3.751 0.615,-7.501 0,-11.252 -5.01,0 -12.189,0 -21.564,0 -2.506,0.631 -4.074,0.631 -4.689,0 9.377,-6.24 18.123,-9.991 26.254,-11.251 0.615,-3.75 0.615,-7.179 0,-10.313 0,-5.626 -0.322,-10.929 -0.938,-15.939 -8.762,1.876 -17.814,0.322 -27.191,-4.688 -5.01,-2.49 -9.375,-5.626 -13.125,-9.376 -2.506,-2.49 -3.752,-4.366 -3.752,-5.626 7.502,1.26 17.814,2.197 30.941,2.813 l 15.939,-0.938 c 8.115,-1.245 15.939,-3.428 23.439,-6.563 6.871,-3.121 11.252,-4.688 13.127,-4.688 12.495,10e-4 19.366,2.813 20.626,8.439 z m -78.758,91.885 3.75,12.189 4.688,-0.938 c 3.121,-0.615 5.934,-1.553 8.439,-2.813 -2.506,-2.49 -4.074,-5.303 -4.689,-8.438 l 6.564,1.875 v -6.563 c -10.006,1.26 -16.262,2.813 -18.752,4.688 z m 45.004,-38.441 c 0.615,3.75 0.615,7.823 0,12.188 4.996,0 8.746,1.876 11.252,5.626 1.244,1.26 1.244,2.813 0,4.688 -3.135,3.751 -7.502,6.563 -13.127,8.438 l -2.813,14.064 c 4.365,0.63 6.563,2.505 6.563,5.626 3.121,0 5.934,-0.309 8.439,-0.938 8.746,-11.251 12.803,-27.806 12.188,-49.692 -2.504,-1.875 -5.625,-2.49 -9.375,-1.875 l -13.127,1.875 z m 72.195,60.944 c 6.242,2.505 9.684,6.563 10.314,12.188 -9.377,15.002 -17.508,25.945 -24.379,32.816 -8.76,8.115 -15.938,12.188 -21.564,12.188 -3.75,0 -8.438,-2.505 -14.064,-7.501 -4.379,-4.365 -6.885,-7.501 -7.5,-9.376 -2.506,-1.245 -2.813,-2.813 -0.938,-4.688 13.127,0 22.502,-2.813 28.129,-8.438 5.625,-6.241 9.375,-13.742 11.25,-22.503 -4.381,-1.875 -7.193,-0.938 -8.438,2.813 -4.381,-3.12 -5.012,-5.933 -1.875,-8.438 1.875,-1.876 4.057,-2.813 6.563,-2.813 h 6.563 c 4.996,0.001 10.314,1.261 15.939,3.752 z"
       stroke-miterlimit="10"
       inkscape:connector-curvature="0" /></g></g><g
   inkscape:groupmode="layer"
   id="layer2"
   inkscape:label="Front"
   style="display:inline"><path
     style="fill:none;stroke:url(#linearGradient3054);stroke-width:18.54457664;stroke-linecap:butt;stroke-linejoin:bevel;stroke-miterlimit:4;stroke-dasharray:none;stroke-dashoffset:0"
     id="path2989"
     d="m 108.01578,226.38694 5.21658,5.2166 c 1.1405,1.1683 1.73948,4.07424 1.73948,8.6937 0,6.95422 -9.862,22.60398 -29.558199,46.9456 -1.1683,26.68007 4.04828,43.46848 15.647919,50.42269 31.29768,-52.1622 51.56504,-85.1975 60.85588,-99.10778 8.0947,-13.9103 13.90844,-20.8645 17.3874,-20.8645 2.3088,2.3366 2.3088,5.21658 0,8.69368 -10.43318,20.86452 -17.98638,38.2519 -22.60398,52.1622 -4.64542,13.91029 -9.29084,31.8948 -13.9103,53.90166 -5.81372,17.3874 -9.29082,31.29583 -10.43132,41.72901 0,2.33662 -2.33662,11.03031 -6.95422,26.08109 -2.33662,5.7859 -5.81372,8.69371 -10.43132,8.69371 -11.59964,0 -21.463499,-8.09656 -29.558199,-24.34163 -9.29084,-17.38739 -13.90844,-37.65476 -13.90844,-60.85587 l 3.47712,-36.51426 c 4.61946,-19.6962 6.95422,-33.03533 6.95422,-39.98954 -18.5557,-25.48397 -27.81872,-41.729 -27.81872,-48.68506 0,-5.78778 0.57116,-9.26489 1.73948,-10.43134 19.69062,12.7661 37.07802,25.50808 52.156619,38.25004 z m 59.1164,-119.97412 c 2.3088,4.6454 2.3088,8.12252 0,10.43132 -6.95422,6.95422 -13.9103,12.7698 -20.8645,17.3874 -25.50992,12.76978 -39.99138,20.8645 -43.4685,24.3416 -5.813719,4.64542 -9.861999,7.5532 -12.170799,8.6937 -2.33662,-2.3088 -2.33662,-4.6176 0,-6.95422 6.95422,-12.74198 14.481459,-23.1733 22.603979,-31.29582 9.26488,-6.95422 12.17082,-15.64792 8.6937,-26.0811 -4.64542,-5.787765 -9.862,-11.004345 -15.64792,-15.647905 l -5.21658,-1.7395 c 1.1405,-1.14234 5.21658,-2.31064 12.1708,-3.4771 24.34162,-2.3088 42.30018,5.81372 53.89982,24.341625 z m 78.24328,173.8758 c 0,10.43132 -3.4771,28.98702 -10.43132,55.63928 -6.95422,25.50991 -22.60398,44.6368 -46.9456,57.37878 -9.2927,0 -13.9103,-9.26488 -13.9103,-27.81872 0,-8.09656 2.3088,-15.05078 6.95422,-20.8645 26.65228,-27.81872 40.56256,-57.37878 41.72902,-88.6746 L 221.032,242.03858 c 4.61946,1.1683 8.6937,2.90592 12.1708,5.21658 8.09842,9.28712 12.17266,20.29148 12.17266,33.03346 z M 365.3496,127.27732 c 9.26486,4.64542 6.35708,9.862 -8.6937,15.6479 -22.03282,4.64542 -39.4202,11.6015 -52.16218,20.86452 11.57366,5.81372 24.91278,13.3391 39.99138,22.60212 11.57366,6.95422 19.12502,14.50742 22.60398,22.60398 10.43132,24.34162 6.35708,34.7748 -12.1708,31.29768 -4.64542,-1.14048 -9.86202,-5.21658 -15.64792,-12.1708 -8.12252,-10.43132 -13.33912,-17.3874 -15.64792,-20.8645 -25.50992,13.91028 -51.02168,25.50992 -76.50378,34.77478 -6.95422,1.16832 -15.64792,-2.87996 -26.0811,-12.1708 -5.81372,-3.4771 -10.43132,-8.6937 -13.90844,-15.64792 4.6176,0 10.43134,-1.14048 17.3874,-3.4771 5.78776,-5.7859 9.8342,-11.0025 12.1708,-15.64792 4.61946,-6.9542 10.43318,-15.6479 17.3874,-26.08108 l -12.1708,1.73948 -29.5582,-1.73948 c -11.59964,-6.95422 -22.03282,-13.90844 -31.29584,-20.8645 -4.64542,-3.47712 -4.64542,-5.2166 0,-5.2166 49.82558,-2.3088 85.1975,-6.35708 106.062,-12.1708 5.78776,-3.47712 12.74198,-6.35708 20.8645,-8.6937 8.09656,-3.4771 16.2191,-5.21658 24.34162,-5.21658 10.42762,1.1683 21.43012,4.6454 33.0316,10.43132 z M 321.87926,89.025415 c 0,2.33662 -4.64542,5.81372 -13.90844,10.43132 -24.3416,4.645425 -45.8051,13.910285 -64.33298,27.818725 v -1.73948 c 6.95422,-12.74198 15.05078,-24.34162 24.3416,-34.774805 -3.4771,-5.78776 -9.862,-12.74196 -19.12502,-20.8645 -3.4771,-3.4771 -5.21658,-5.78776 -5.21658,-6.9542 9.26486,-1.1405 18.52788,-1.7395 27.81872,-1.7395 35.91712,3.48082 52.73336,12.77166 50.4227,27.82244 z M 285.36684,271.59492 c 3.4771,4.64542 5.21658,11.03032 5.21658,19.12502 3.47712,-4.61946 7.5254,-8.6937 12.17082,-12.1708 -5.81374,34.77478 -12.17082,70.71788 -19.12502,107.80146 -2.33662,1.16832 -5.81374,0.59714 -10.43134,-1.73948 -13.91028,-15.05078 -19.724,-30.70054 -17.38738,-46.94558 5.7859,-16.2191 9.26486,-33.03532 10.43132,-50.4227 0,-10.43134 -1.73948,-19.12504 -5.2166,-26.0811 -1.1683,-3.4771 -2.90592,-5.7859 -5.21658,-6.95422 2.3088,0 5.7859,0.599 10.43132,1.73948 9.26488,4.64356 15.64978,9.86016 19.12688,15.64792 z m -13.91028,-78.24514 c -3.47712,4.64542 -5.81374,8.12254 -6.95422,10.43318 11.57366,-3.4771 22.005,-6.35708 31.29582,-8.6937 6.95422,-2.31064 13.31316,-4.61944 19.12688,-6.9542 l -6.95422,-10.43318 c -2.33662,-3.47712 -5.21658,-7.5254 -8.6937,-12.17082 -15.07858,12.7698 -24.3416,22.03282 -27.82056,27.81872 z m 76.50564,53.90168 c 3.47712,3.4771 5.2166,8.12252 5.2166,13.90842 v 34.7748 c 0,4.6454 1.14048,16.81622 3.4771,36.51426 1.1405,6.95422 7.52538,12.76794 19.12502,17.3874 34.7748,16.2469 51.56504,31.89482 50.4227,46.9456 -3.4771,2.3366 -8.6937,3.4771 -15.6479,3.4771 -20.86452,0 -41.1597,-7.52539 -60.8559,-22.60398 -19.724,-16.21908 -29.5582,-31.29768 -29.5582,-45.20612 v -67.8101 c -4.6454,-3.4771 -9.29082,-4.04828 -13.90842,-1.73948 5.7859,-9.26486 13.3113,-15.6479 22.60212,-19.12688 6.95422,-1.14048 13.31316,0.002 19.12688,3.47898 z"
     stroke-miterlimit="10"
     inkscape:connector-curvature="0" /></g></svg>