<?xml version="1.0" encoding="utf-8"?>
<!-- Generator: Adobe Illustrator 16.2.0, SVG Export Plug-In . SVG Version: 6.00 Build 0)  -->
<!DOCTYPE svg PUBLIC "-//W3C//DTD SVG 1.1//EN" "http://www.w3.org/Graphics/SVG/1.1/DTD/svg11.dtd">
<svg version="1.1"
	 id="svg2" xmlns:dc="http://purl.org/dc/elements/1.1/" xmlns:cc="http://creativecommons.org/ns#" xmlns:rdf="http://www.w3.org/1999/02/22-rdf-syntax-ns#" xmlns:svg="http://www.w3.org/2000/svg" xmlns:sodipodi="http://sodipodi.sourceforge.net/DTD/sodipodi-0.dtd" xmlns:inkscape="http://www.inkscape.org/namespaces/inkscape" inkscape:version="0.48.3.1 r9886" sodipodi:docname="preview.svg"
	 xmlns="http://www.w3.org/2000/svg" xmlns:xlink="http://www.w3.org/1999/xlink" x="0px" y="0px" width="480px" height="480px"
	 viewBox="0 0 480 480" enable-background="new 0 0 480 480" xml:space="preserve">
<sodipodi:namedview  inkscape:cy="120" inkscape:cx="240" inkscape:zoom="0.98333333" showgrid="false" guidetolerance="10" gridtolerance="10" objecttolerance="10" borderopacity="1" bordercolor="#666666" pagecolor="#ffffff" id="namedview10" inkscape:pageopacity="0" inkscape:pageshadow="2" inkscape:window-width="1920" inkscape:window-height="1018" inkscape:window-x="-8" inkscape:window-y="-8" inkscape:current-layer="svg2" inkscape:window-maximized="1">
	</sodipodi:namedview>
<g>
	<path fill="none" stroke="#000000" stroke-miterlimit="10" d="M50.604,113.419l2.813,2.813c0.615,0.63,0.938,2.197,0.938,4.688
		c0,3.75-5.318,12.189-15.939,25.315c-0.63,14.387,2.183,23.44,8.438,27.19c16.877-28.128,27.806-45.942,32.816-53.443
		c4.365-7.501,7.5-11.251,9.376-11.251c1.245,1.26,1.245,2.813,0,4.688c-5.626,11.251-9.699,20.627-12.189,28.128
		c-2.505,7.501-5.01,17.199-7.501,29.066c-3.135,9.376-5.01,16.876-5.625,22.502c0,1.26-1.26,5.948-3.75,14.064
		c-1.26,3.12-3.135,4.688-5.625,4.688c-6.255,0-11.574-4.366-15.939-13.126c-5.01-9.376-7.5-20.305-7.5-32.816l1.875-19.69
		c2.491-10.621,3.75-17.814,3.75-21.564c-10.006-13.742-15.001-22.502-15.001-26.253c0-3.121,0.308-4.996,0.938-5.625
		C33.097,99.677,42.473,106.548,50.604,113.419z M82.482,48.724c1.245,2.505,1.245,4.38,0,5.625
		c-3.75,3.75-7.501,6.886-11.251,9.376c-13.756,6.886-21.565,11.251-23.44,13.126c-3.135,2.505-5.318,4.073-6.563,4.688
		c-1.26-1.245-1.26-2.49,0-3.75c3.75-6.871,7.809-12.496,12.189-16.876c4.996-3.75,6.563-8.438,4.688-14.064
		c-2.505-3.121-5.318-5.934-8.438-8.438l-2.813-0.938c0.615-0.616,2.813-1.246,6.563-1.875
		C66.543,34.353,76.227,38.733,82.482,48.724z M124.674,142.485c0,5.625-1.875,15.631-5.625,30.003
		c-3.75,13.756-12.189,24.07-25.315,30.941c-5.011,0-7.501-4.996-7.501-15.001c0-4.366,1.245-8.116,3.75-11.251
		c14.372-15.001,21.873-30.941,22.502-47.817l-0.938-7.501c2.491,0.63,4.688,1.567,6.563,2.813
		C122.477,129.68,124.674,135.614,124.674,142.485z M189.369,59.975c4.996,2.505,3.428,5.318-4.688,8.438
		c-11.881,2.505-21.257,6.256-28.128,11.251c6.241,3.135,13.434,7.193,21.565,12.188c6.241,3.75,10.313,7.823,12.189,12.189
		c5.625,13.126,3.428,18.752-6.563,16.877c-2.505-0.615-5.318-2.813-8.438-6.563c-4.38-5.625-7.193-9.376-8.438-11.251
		c-13.756,7.501-27.513,13.756-41.254,18.752c-3.75,0.63-8.438-1.553-14.064-6.563c-3.135-1.875-5.625-4.688-7.5-8.438
		c2.49,0,5.625-0.615,9.376-1.875c3.121-3.12,5.303-5.933,6.563-8.438c2.491-3.75,5.626-8.438,9.376-14.064l-6.563,0.938
		l-15.939-0.938c-6.255-3.75-11.881-7.5-16.876-11.251c-2.505-1.875-2.505-2.813,0-2.813c26.868-1.245,45.942-3.428,57.193-6.563
		c3.121-1.875,6.871-3.428,11.251-4.688c4.366-1.875,8.746-2.813,13.126-2.813C177.18,54.98,183.113,56.855,189.369,59.975z
		 M165.928,39.348c0,1.26-2.505,3.135-7.5,5.625c-13.126,2.505-24.7,7.501-34.691,15.001v-0.938
		c3.75-6.871,8.116-13.126,13.126-18.752c-1.875-3.121-5.318-6.871-10.313-11.251c-1.875-1.875-2.813-3.121-2.813-3.75
		c4.996-0.615,9.991-0.938,15.001-0.938C158.106,26.222,167.174,31.232,165.928,39.348z M146.239,137.797
		c1.875,2.505,2.813,5.948,2.813,10.313c1.875-2.491,4.058-4.688,6.563-6.563c-3.135,18.752-6.563,38.134-10.313,58.131
		c-1.26,0.63-3.135,0.322-5.625-0.938c-7.501-8.116-10.636-16.555-9.376-25.315c3.12-8.746,4.996-17.814,5.625-27.19
		c0-5.625-0.938-10.313-2.813-14.064c-0.63-1.875-1.567-3.12-2.813-3.75c1.245,0,3.12,0.323,5.625,0.938
		C140.921,131.863,144.364,134.676,146.239,137.797z M138.738,95.604c-1.875,2.505-3.135,4.38-3.75,5.626
		c6.241-1.875,11.866-3.428,16.876-4.688c3.75-1.246,7.179-2.491,10.314-3.75l-3.75-5.626c-1.26-1.875-2.813-4.058-4.688-6.563
		C145.609,87.489,140.614,92.484,138.738,95.604z M179.993,124.67c1.875,1.875,2.813,4.38,2.813,7.5v18.752
		c0,2.505,0.615,9.068,1.875,19.69c0.615,3.75,4.058,6.885,10.313,9.376c18.752,8.761,27.806,17.199,27.19,25.315
		c-1.875,1.26-4.688,1.875-8.438,1.875c-11.251,0-22.195-4.058-32.816-12.189c-10.636-8.746-15.939-16.877-15.939-24.377v-36.566
		c-2.505-1.875-5.01-2.183-7.5-0.938c3.12-4.996,7.178-8.438,12.188-10.314C173.429,122.179,176.858,122.795,179.993,124.67z"/>
	<path fill="none" stroke="#000000" stroke-miterlimit="10" d="M282.191,108.731l-0.938,1.875c3.121,1.26,7.178,0.63,12.189-1.875
		c7.5-1.875,16.877-5.303,28.127-10.313c1.875-1.875,4.365-4.366,7.502-7.501c2.49,0.63,7.178,2.505,14.063,5.626
		c1.246,1.26,1.246,2.505,0,3.75c-12.51,8.131-21.256,14.386-26.252,18.752c4.365,4.38,6.24,7.501,5.625,9.376l-2.813,8.438
		c-5.01,11.881-8.131,22.825-9.375,32.816l0.938,3.75c7.5,0,15.939-11.559,25.314-34.691c2.49-6.871,4.059-8.116,4.688-3.75
		c-6.885,26.253-11.572,43.452-14.063,51.568c-3.137,10.006-6.887,15.002-11.252,15.002c-14.387-3.121-21.258-12.189-20.627-27.19
		c1.244-13.742,2.813-22.502,4.688-26.253c1.246-4.996,3.75-11.251,7.5-18.752c-2.504,1.875-8.76,7.823-18.752,17.814
		c-8.131,8.13-14.385,14.694-18.752,19.689c-4.379,5.01-8.438,8.438-12.188,10.313c-6.256-6.241-7.193-11.559-2.813-15.939
		l6.563-6.563c13.127-13.126,24.377-24.993,33.754-35.629c-4.381,1.875-9.699,3.443-15.939,4.688
		c-5.625,0.63-9.699-1.245-12.189-5.625c-1.26-2.49-0.938-4.688,0.938-6.563c2.49-3.75,8.117-7.501,16.877-11.251
		c6.871-3.12,12.805-6.563,17.814-10.313c-1.875-3.75-5.01-6.871-9.375-9.376c-4.381,3.135-10.637,7.193-18.752,12.189l-2.814,0.938
		c-6.885-5.625-10.313-9.991-10.313-13.126c0-10.621,2.813-14.679,8.438-12.189l7.502,7.501c8.115-2.491,15.939-4.996,23.439-7.501
		c0-3.12,0-6.563,0-10.313c0-1.875-1.26-4.058-3.75-6.563c-1.875-3.121-2.506-4.996-1.875-5.626c1.875-2.49,4.996-3.75,9.375-3.75
		c10.621,0.63,15.617,6.255,15.002,16.876c-0.629,8.131-1.875,15.939-3.75,23.44c5.625-3.75,10.93-7.808,15.939-12.188l-2.813-4.688
		l4.688-1.875c4.996,0,8.746,0.63,11.252,1.875c2.49,0,4.057,1.567,4.688,4.688c0.615,3.135-1.568,6.255-6.564,9.376
		c-10.006,5.625-23.762,12.511-41.254,20.627C294.381,102.798,287.816,105.611,282.191,108.731z M295.318,78.728h5.625v-7.501
		C298.437,74.977,296.562,77.482,295.318,78.728z M371.263,44.036c8.746-2.491,21.564-4.366,38.441-5.625h14.064
		c6.871,0,13.127,1.26,18.752,3.75c4.996,2.505,9.684,5.948,14.064,10.313c1.244,1.875,1.244,3.443,0,4.688
		c-4.381,3.135-10.637,5.01-18.752,5.625c-14.387,1.875-24.07,3.443-29.066,4.688v1.875l5.625-0.938
		c1.875,0,4.059,0.322,6.564,0.938c8.746,3.135,9.375,6.563,1.875,10.313c-5.627,2.505-10.314,3.75-14.064,3.75
		c0,1.875,0,4.38,0,7.5c4.996-1.245,9.377-1.875,13.127-1.875c5.625,0,11.25,1.567,16.877,4.688
		c4.365,2.505,8.115,6.563,11.25,12.189c-1.26,3.75-2.504,7.823-3.75,12.188c-3.135,10.636-6.256,17.199-9.375,19.69
		c-5.012,1.875-10.945,2.813-17.814,2.813l-9.377,2.813c0,1.875,0,4.073,0,6.563c18.123-0.615,30.941-1.553,38.441-2.813
		c15.617,1.26,22.811,6.255,21.564,15.001c-1.875,1.875-5.625,2.813-11.25,2.813c-11.252-1.246-23.764-2.491-37.504-3.75
		l-10.314,0.938l-0.938,8.438c0.615,7.5,0.938,16.261,0.938,26.253c0,10.006-0.322,18.43-0.938,25.315
		c-2.506,11.867-7.193,11.867-14.064,0c-2.504-5.01-3.75-10.636-3.75-16.877v-41.254h-3.75c-15.631,3.135-29.389,6.256-41.254,9.376
		l-2.814-1.875c-3.75-3.75-4.379-6.871-1.875-9.376c16.877-5.625,29.682-10.929,38.441-15.939c-5.625,0-10.313-1.875-14.063-5.625
		c-5.627-7.5-9.377-15.309-11.252-23.44c-1.875-8.116-2.813-13.434-2.813-15.939c0-4.366,0.938-7.501,2.813-9.376
		c1.246-1.875,2.813-2.813,4.688-2.813c3.121,8.761,6.564,17.507,10.314,26.253c5.625-1.875,13.127-3.75,22.502-5.626
		c0-1.245,0-2.813,0-4.688c-6.256,0-11.572-0.308-15.939-0.938c-1.26,0-3.441-0.615-6.563-1.875c1.875-1.246,4.365-2.491,7.5-3.75
		c4.996-2.491,10.314-4.688,15.939-6.563c0-3.12-0.322-5.625-0.938-7.5c-13.127-1.875-21.887-4.688-26.252-8.438
		c-8.762-0.615-13.449-6.241-14.064-16.877l3.75-22.502c0.615-3.12,0.938-4.996,0.938-5.625
		C362.195,34.045,366.883,38.411,371.263,44.036z M380.638,52.475c-5.01,0-7.822,2.197-8.438,6.563
		c0,5.625-0.938,10.314-2.813,14.064c1.244,0,3.428,0.322,6.563,0.938c4.365,0,10.314-0.616,17.814-1.875
		c0.615-4.996-0.629-8.746-3.75-11.251c-0.631-3.121,1.553-5.303,6.563-6.563c6.242,0,10.314,2.505,12.189,7.501
		c7.5-2.491,13.127-6.241,16.877-11.251l-29.066-1.875C389.693,48.109,384.39,49.354,380.638,52.475z M373.138,121.857
		c1.246,5.625,3.121,9.068,5.625,10.313c2.492-3.75,4.689-6.563,6.564-8.438C381.578,123.117,377.504,122.487,373.138,121.857z
		 M391.89,150.923v-3.75c-2.506,1.26-8.131,3.442-16.877,6.563C383.76,152.49,389.385,151.553,391.89,150.923z M379.701,134.984
		c5.627-1.245,9.377-2.491,11.252-3.75c0-1.875,0-3.75,0-5.625C384.697,129.988,380.947,133.109,379.701,134.984z M408.767,102.168
		c0,1.875,0,3.75,0,5.625c6.24,0,9.055,2.505,8.438,7.501c0,2.505-2.197,4.38-6.563,5.625c-0.629,1.875-0.938,4.38-0.938,7.5
		c13.742-2.49,19.998-11.251,18.752-26.252c-2.506-1.875-4.072-2.813-4.688-2.813C418.144,99.985,413.133,100.922,408.767,102.168z"
		/>
	<path fill="none" stroke="#000000" stroke-miterlimit="10" d="M109.673,385.323c-8.131,11.251-20.319,24.07-36.566,38.441
		c-15.631,13.757-26.253,20.628-31.878,20.628c-16.877,0-24.7-6.871-23.44-20.628c0-4.995,1.245-8.746,3.75-11.251
		c6.241-4.365,10.621-6.563,13.126-6.563c-1.875,5.626-2.813,10.006-2.813,13.127c0,2.505,0.615,3.442,1.875,2.813
		c6.871-1.875,19.06-7.809,36.566-17.814c16.247-10.621,28.128-20.305,35.629-29.065
		C108.413,375.009,109.673,378.451,109.673,385.323z M98.422,284.999c3.75,2.505,5.303,4.688,4.688,6.563
		c-1.26,3.135-6.256,7.193-15.002,12.188c-20.012,12.512-31.878,21.888-35.628,28.128h2.813c4.996,0,11.559-1.875,19.689-5.625
		c6.241-3.121,10.314-4.688,12.189-4.688c2.491,0,5.303,0.938,8.438,2.813c2.491,1.876,3.75,5.318,3.75,10.314
		c-5.625,4.38-10.636,8.13-15.001,11.251c-4.38,3.135-9.068,7.823-14.064,14.063c-1.26,3.136,0.308,3.443,4.688,0.938
		c9.376-6.24,15.002-9.054,16.877-8.438c7.501,3.135,11.251,6.255,11.251,9.376c-5.01,6.255-13.756,13.126-26.253,20.627
		c-14.386,8.761-26.253,15.001-35.629,18.752v-0.938l4.688-5.626c6.871-5.625,12.189-10.621,15.939-15.002
		c-5.011,0.631-10.006,1.261-15.002,1.876c-6.885,0-10.636-3.751-11.251-11.252c0-1.875,6.241-9.054,18.752-21.564l2.813-1.875
		c-5.626,0-11.881,1.26-18.752,3.75c-3.75,1.26-6.563,0.938-8.438-0.938c-3.75-4.995-5.626-9.376-5.626-13.126l1.875-5.626
		c16.876-15.617,31.556-29.065,44.067-40.316c-3.135-1.876-3.75-3.429-1.875-4.688c3.121-4.365,7.809-6.871,14.064-7.501
		C86.848,278.436,92.166,280.634,98.422,284.999z M165.928,265.31c8.116,2.505,12.804,5.626,14.064,9.376
		c1.245,3.75-1.26,6.563-7.501,8.438l-20.627,5.625c-7.5,0.631-14.386,2.506-20.627,5.626c2.49,4.381,4.688,10.943,6.563,19.689
		c12.497-9.991,24.993-16.877,37.504-20.627c3.75,0,7.179,0.322,10.314,0.938c7.5,2.505,12.188,6.563,14.064,12.188
		c1.245,3.751,1.875,6.256,1.875,7.501c0,4.381-0.938,10.313-2.813,17.814c-1.875,7.501-5.01,14.694-9.376,21.565
		c-3.75,4.38-6.563,5.947-8.438,4.688c-2.505-3.75-5.948-5.625-10.314-5.625c-4.38,0-7.5,0.938-9.376,2.813
		c6.871,5.01,9.684,13.448,8.438,25.315c0-6.871,0,8.438,0,45.942c0,10.006-0.63,17.507-1.875,22.502
		c-1.26,4.366-4.688,8.438-10.313,12.188c-3.75,1.246-8.761-1.875-15.002-9.376c-6.255-7.5-10.636-14.063-13.126-19.689
		c-1.26-2.49-2.505-4.995-3.75-7.501l-8.438,5.626c-6.886,1.26-10.636-2.813-11.251-12.188c0-2.491,2.813-6.563,8.438-12.189
		c8.116-7.5,12.189-13.741,12.189-18.752l-2.813-4.688c-1.875-3.751-3.135-6.871-3.75-9.376c11.251,1.875,19.06,5.01,23.44,9.376
		c1.875,4.38,2.49,8.761,1.875,13.126c1.875,0,3.75-0.308,5.625-0.938l0.938-16.877v-8.438c-2.505-4.995-5.625-8.746-9.376-11.251
		c-3.75-0.615-6.885-1.875-9.376-3.75c-9.376-6.241-14.386-17.492-15.001-33.754c1.245-19.997,7.179-34.062,17.814-42.192
		c9.991-8.746,18.43-13.126,25.315-13.126H165.928z M134.988,415.325l-3.75,3.751c4.366,5.625,9.991,10.636,16.877,15.001
		l3.75-1.875c0-3.75,0-7.179,0-10.313c-0.63-8.116-0.938-15.939-0.938-23.439C142.796,407.825,137.478,413.45,134.988,415.325z
		 M150.927,308.44c-4.38,1.875-8.761,4.38-13.126,7.5c0,1.261,0.308,2.813,0.938,4.688c4.996-1.245,11.251-2.813,18.752-4.688
		c10.621-0.615,15.309,1.876,14.064,7.501c0,0.63-2.813,3.443-8.438,8.438c-4.38,3.751-8.438,6.886-12.189,9.376
		c12.497-1.245,19.998-2.183,22.502-2.813c3.121-6.871,4.996-11.559,5.625-14.064c0.615-2.49,0.938-8.115,0.938-16.876
		c-1.875-1.246-3.443-1.876-4.688-1.876c-3.135-0.615-6.563-0.938-10.313-0.938S156.552,305.948,150.927,308.44z M141.551,341.255
		h1.875l3.75-7.501c-2.505-0.615-4.688-0.615-6.563,0L141.551,341.255z M214.684,372.197c1.245,2.505,0.615,4.688-1.875,6.563
		c-11.251,7.501-17.814,13.127-19.69,16.877v0.938c3.121,1.876,8.438,4.073,15.939,6.563c11.251,4.381,18.752,10.006,22.502,16.877
		c1.875,3.135,1.553,5.948-0.938,8.438c-1.875,1.26-5.01,2.197-9.376,2.813h-11.251c-6.885,0-11.251-0.938-13.126-2.813
		c-3.135-1.875-3.75-3.429-1.875-4.688c4.366,0,7.5-1.245,9.376-3.75c-1.26-1.245-4.38-3.12-9.376-5.626
		c-12.511-5.625-19.69-9.684-21.565-12.188c-1.875-2.49-2.813-5.626-2.813-9.376c0.616-2.49,1.875-4.688,3.75-6.563
		c3.75-4.365,9.054-8.438,15.939-12.188l-3.75-2.813c-3.75,0-6.255,0-7.501,0c5.626-4.366,11.251-7.179,16.877-8.438
		C203.433,362.205,209.674,365.325,214.684,372.197z"/>
	<path fill="none" stroke="#000000" stroke-miterlimit="10" d="M300.943,410.638c2.49,3.135,4.365,6.886,5.625,11.251
		c10.621-3.12,21.873-4.995,33.754-5.625c8.746-2.491,19.689-3.429,32.816-2.813l21.564,0.938c8.746,0.63,14.373,2.198,16.877,4.688
		c1.875,1.26,1.553,3.135-0.938,5.625c-3.75,1.876-11.25,3.443-22.502,4.688c-31.264,3.75-54.381,8.131-69.383,13.126
		c-6.256,3.136-11.574,4.688-15.939,4.688c-3.135,0-7.193-1.553-12.188-4.688c-5.627-3.12-8.439-8.438-8.439-15.938
		c0-7.501-2.506-14.68-7.5-21.565c-5.627-6.87-5.627-10.313,0-10.313C288.431,395.328,297.193,400.647,300.943,410.638z
		 M409.705,284.999c1.246,1.26,1.246,2.505,0,3.75c-3.75,3.751-7.822,6.563-12.189,8.438c-5.625,2.506-13.125,4.073-22.502,4.688
		l0.938,22.502c3.75,0,8.117-0.308,13.127-0.938c7.5-0.615,15.617,1.26,24.377,5.626c8.746,4.38,13.742,9.376,15.002,15.002
		c-3.135,8.761-5.947,17.814-8.438,27.19c-8.762,24.377-16.877,37.504-24.379,39.379c-5.625,1.875-10.635,0.322-15.002-4.688
		c-2.504-2.49-4.379-4.058-5.625-4.688c-10.635,0-22.195,2.197-34.691,6.563c-13.756,0-24.699-9.684-32.816-29.066
		c-8.129-20.627-12.188-31.556-12.188-32.815c0-1.245,1.553-2.49,4.688-3.751c3.121-0.615,10.314,5.948,21.564,19.69l2.813,2.813
		c8.746-4.366,17.492-7.809,26.254-10.313c0.615-3.751,0.615-7.501,0-11.252c-5.01,0-12.189,0-21.564,0
		c-2.506,0.631-4.074,0.631-4.689,0c9.377-6.24,18.123-9.991,26.254-11.251c0.615-3.75,0.615-7.179,0-10.313
		c0-5.626-0.322-10.929-0.938-15.939c-8.762,1.876-17.814,0.322-27.191-4.688c-5.01-2.49-9.375-5.626-13.125-9.376
		c-2.506-2.49-3.752-4.366-3.752-5.626c7.502,1.26,17.814,2.197,30.941,2.813l15.939-0.938c8.115-1.245,15.939-3.428,23.439-6.563
		c6.871-3.121,11.252-4.688,13.127-4.688C401.574,276.561,408.445,279.373,409.705,284.999z M330.947,376.884l3.75,12.189
		l4.688-0.938c3.121-0.615,5.934-1.553,8.439-2.813c-2.506-2.49-4.074-5.303-4.689-8.438l6.564,1.875v-6.563
		C339.693,373.456,333.437,375.009,330.947,376.884z M375.951,338.443c0.615,3.75,0.615,7.823,0,12.188
		c4.996,0,8.746,1.876,11.252,5.626c1.244,1.26,1.244,2.813,0,4.688c-3.135,3.751-7.502,6.563-13.127,8.438l-2.813,14.064
		c4.365,0.63,6.563,2.505,6.563,5.626c3.121,0,5.934-0.309,8.439-0.938c8.746-11.251,12.803-27.806,12.188-49.692
		c-2.504-1.875-5.625-2.49-9.375-1.875L375.951,338.443z M448.146,399.387c6.242,2.505,9.684,6.563,10.314,12.188
		c-9.377,15.002-17.508,25.945-24.379,32.816c-8.76,8.115-15.938,12.188-21.564,12.188c-3.75,0-8.438-2.505-14.064-7.501
		c-4.379-4.365-6.885-7.501-7.5-9.376c-2.506-1.245-2.813-2.813-0.938-4.688c13.127,0,22.502-2.813,28.129-8.438
		c5.625-6.241,9.375-13.742,11.25-22.503c-4.381-1.875-7.193-0.938-8.438,2.813c-4.381-3.12-5.012-5.933-1.875-8.438
		c1.875-1.876,4.057-2.813,6.563-2.813h6.563C437.203,395.636,442.521,396.896,448.146,399.387z"/>
</g>
</svg>
